<?xml version="1.0" encoding="UTF-8"?>
<svg version="1.1" xmlns="http://www.w3.org/2000/svg" width="427" height="424">
<path d="M0 0 C140.91 0 281.82 0 427 0 C427 139.92 427 279.84 427 424 C286.09 424 145.18 424 0 424 C0 284.08 0 144.16 0 0 Z " fill="#170325" transform="translate(0,0)"/>
<path d="M0 0 C-1.51639033 3.03278067 -3.98942599 3.61513595 -7 5 C-7.99 5.33 -8.98 5.66 -10 6 C-10 6.66 -10 7.32 -10 8 C-10.66 8 -11.32 8 -12 8 C-12.66 9.98 -13.32 11.96 -14 14 C-13.60296875 13.52949219 -13.2059375 13.05898438 -12.796875 12.57421875 C-8.81541973 9.08611772 -2.51501142 9.18605403 2.5625 8.5625 C6.08507239 9.01082739 7.04817676 9.59202944 9.875 11.5 C15.09532741 14.72431987 20.03953459 14.37012893 25.97216797 14.078125 C30.17805448 13.88594376 33.22048102 14.07304052 37 16 C37 16.33 37 16.66 37 17 C33.37 17.99 29.74 18.98 26 20 C27.464375 20.61875 28.92875 21.2375 30.4375 21.875 C35.83671329 24.53260428 39.08088869 28.02905488 42.796875 32.6953125 C46.50890705 36.5784666 50.74864561 38.227742 56 39 C56 39.66 56 40.32 56 41 C53.29120665 42.35439668 50.99066732 42.06501451 48 42 C48 42.66 48 43.32 48 44 C48.57234375 44.24105469 49.1446875 44.48210937 49.734375 44.73046875 C52.43369057 46.24301627 54.13930479 48.05375243 56.25 50.3125 C60.20683621 54.38088881 64.06768797 57.21996958 69 60 C68 62 68 62 65.375 63.125 C61.77893393 64.05731343 58.69828515 64.06149168 55 64 C55.23396716 72.66848324 55.76976476 79.87921595 59.2578125 87.92578125 C59.50273437 88.61027344 59.74765625 89.29476562 60 90 C59.67 90.66 59.34 91.32 59 92 C56.95880212 90.38405168 54.95927063 88.7143618 53 87 C53 86.34 53 85.68 53 85 C52.34 85 51.68 85 51 85 C51 87.97 51 90.94 51 94 C50.01 94.495 50.01 94.495 49 95 C48.92523438 94.02417969 48.85046875 93.04835938 48.7734375 92.04296875 C48.64195312 90.77066406 48.51046875 89.49835938 48.375 88.1875 C48.25898438 86.92292969 48.14296875 85.65835938 48.0234375 84.35546875 C47.35542959 80.7773374 47.35542959 80.7773374 44.21875 79.4453125 C43.1565625 78.96835938 42.094375 78.49140625 41 78 C39.16638802 75.90003765 37.65469668 73.9794435 36.125 71.6875 C35.52171875 70.8531543 35.52171875 70.8531543 34.90625 70.00195312 C32.02278248 65.78954054 32 64.4767081 32 59 C36.29 60.65 40.58 62.3 45 64 C43.741875 62.535625 42.48375 61.07125 41.1875 59.5625 C37.26302998 54.79049186 33.90525396 49.85512083 30.625 44.625 C22.33969958 31.57605039 14.2384592 19.95040356 -1.4375 15.625 C-5.05381984 14.88480035 -5.05381984 14.88480035 -9 15 C-8.02160156 15.21914063 -7.04320312 15.43828125 -6.03515625 15.6640625 C11.31596334 19.75802237 20.73290851 29.4466871 30.08618164 44.28173828 C31.31028834 46.26989718 32.51305556 48.26940168 33.7109375 50.2734375 C35.94863834 53.99902341 38.4351821 57.49263418 41 61 C40.29875 60.71125 39.5975 60.4225 38.875 60.125 C35.94547497 58.97866412 32.99078347 57.97374346 30 57 C30.04125 58.27875 30.0825 59.5575 30.125 60.875 C30.1953125 63.0546875 30.1953125 63.0546875 30 65 C29.34 65.66 28.68 66.32 28 67 C28 65.35 28 63.7 28 62 C27.34 62 26.68 62 26 62 C25.5978125 63.175625 25.5978125 63.175625 25.1875 64.375 C24 67 24 67 21 69 C20.9175 67.783125 20.835 66.56625 20.75 65.3125 C20.22345753 61.18060426 19.09063565 58.91893367 16 56 C13.38181544 54.66701026 13.38181544 54.66701026 11 54 C11 57.3 11 60.6 11 64 C10.34 64 9.68 64 9 64 C7.68 60.37 6.36 56.74 5 53 C3.1025 52.773125 1.205 52.54625 -0.75 52.3125 C-7.10470697 51.3509325 -16.24235451 49.75764549 -21 45 C-21.04063832 43.33382885 -21.042721 41.66611905 -21 40 C-21.66 40 -22.32 40 -23 40 C-22.23565759 42.54377987 -21.46377703 45.08486141 -20.6875 47.625 C-20.36749023 48.69427734 -20.36749023 48.69427734 -20.04101562 49.78515625 C-18.71699945 54.09314919 -17.14463344 58.01261701 -15 62 C-19.71183028 60.71370473 -22.60637383 58.99101949 -26.1875 55.6875 C-27.02667969 54.92824219 -27.86585938 54.16898438 -28.73046875 53.38671875 C-34.04092653 47.80205489 -34.45830971 43.70254758 -34.3046875 36.18359375 C-33.92063124 32.1706982 -32.95188982 29.49713593 -31 26 C-33.26687385 26.87082599 -33.26687385 26.87082599 -34.1640625 29.5703125 C-34.97168699 32.88383728 -34.91250212 35.39507035 -34.56518555 38.75952148 C-33.71228336 48.2465529 -36.36846143 53.24569254 -42.35839844 60.44604492 C-43.43404812 61.71719473 -44.5125476 62.98593996 -45.59423828 64.25195312 C-49.55934984 69.18251907 -51.69516057 75.176711 -54 81 C-57.66747938 79.16626031 -58.74129801 74.73414923 -60 71 C-60.29454579 68.54098893 -60.21136649 66.48355628 -60 64 C-60.598125 64.350625 -61.19625 64.70125 -61.8125 65.0625 C-64 66 -64 66 -67 65 C-66.49210938 64.3709375 -65.98421875 63.741875 -65.4609375 63.09375 C-61.20485579 57.80154353 -57.0307383 52.46592542 -53 47 C-54.546875 47.0928125 -54.546875 47.0928125 -56.125 47.1875 C-60.23468973 46.98864405 -62.48882496 46.05532197 -66 44 C-66 43.34 -66 42.68 -66 42 C-65.44054687 41.79246094 -64.88109375 41.58492187 -64.3046875 41.37109375 C-56.60638837 38.41306563 -49.32856834 34.75932324 -42 31 C-42.78375 30.38125 -43.5675 29.7625 -44.375 29.125 C-47 27 -47 27 -49 25 C-49.046875 22.9765625 -49.046875 22.9765625 -48.75 20.625 C-48.66234375 19.85414062 -48.5746875 19.08328125 -48.484375 18.2890625 C-47.98335114 15.9213207 -47.17347456 14.10648302 -46 12 C-45.34 12 -44.68 12 -44 12 C-43.34 13.98 -42.68 15.96 -42 18 C-35.07 18.495 -35.07 18.495 -28 19 C-27.67 17.35 -27.34 15.7 -27 14 C-22.53944741 5.90492308 -16.29921673 3.54413945 -7.90234375 0.734375 C-5.12795821 0.03237704 -2.84500301 -0.14616529 0 0 Z " fill="#E7F4FA" transform="translate(205,41)"/>
<path d="M0 0 C2.5 0.3125 2.5 0.3125 5 1 C7.22207105 5.4441421 6.51124685 11.17547509 6 16 C4.12436198 20.41573973 -0.0046679 23.11345187 -4.11328125 25.359375 C-6.31170977 26.10583934 -7.71514258 25.92552283 -10 25.625 C-12.03526431 25.39099942 -12.03526431 25.39099942 -14 26 C-16.08369895 28.29031045 -17.60461626 30.65257861 -19.1640625 33.32421875 C-23.72162082 39.96661758 -30.19794223 42.83206243 -37.3125 46.125 C-38.21162109 46.55425781 -39.11074219 46.98351562 -40.03710938 47.42578125 C-56.86343972 55.33403484 -56.86343972 55.33403484 -63 54 C-65.7112127 51.98595628 -67.82108238 49.56801006 -70 47 C-70.67546875 46.20464844 -71.3509375 45.40929687 -72.046875 44.58984375 C-85.53862344 28.18164592 -85.53862344 28.18164592 -84.8125 18.5 C-83.76259954 15.26953704 -82.33072122 14.19708906 -79.625 12.1875 C-78.83351562 11.58292969 -78.04203125 10.97835937 -77.2265625 10.35546875 C-75 9 -75 9 -72 9 C-71.67 10.65 -71.34 12.3 -71 14 C-70.01 14.33 -69.02 14.66 -68 15 C-68.515625 14.071875 -69.03125 13.14375 -69.5625 12.1875 C-71 9 -71 9 -70 6 C-59.68759554 0.84379777 -35.90249215 4.05547864 -24.98193359 7.66748047 C-21.48054995 8.91067371 -18.03191577 10.25285379 -14.59375 11.66015625 C-11.34228827 12.872386 -8.43108216 13.57111473 -5 14 C-5 15.32 -5 16.64 -5 18 C-5.9590625 18.433125 -5.9590625 18.433125 -6.9375 18.875 C-9.15206079 19.82823451 -9.15206079 19.82823451 -10 22 C-8.35303396 21.5247412 -6.70745272 21.04468109 -5.0625 20.5625 C-3.68771484 20.16224609 -3.68771484 20.16224609 -2.28515625 19.75390625 C-0.0597507 19.20973949 -0.0597507 19.20973949 1 18 C-0.32 18.33 -1.64 18.66 -3 19 C-2.979375 18.071875 -2.95875 17.14375 -2.9375 16.1875 C-2.84230396 12.97713989 -2.84230396 12.97713989 -4 10 C-3.34 9.67 -2.68 9.34 -2 9 C-0.86649466 6.98330173 -0.86649466 6.98330173 0 5 C0.99 5 1.98 5 3 5 C2.67 5.66 2.34 6.32 2 7 C2.495 7.495 2.495 7.495 3 8 C3.33 6.35 3.66 4.7 4 3 C0.45481116 4.39759905 0.45481116 4.39759905 -3 6 C-1.125 1.125 -1.125 1.125 0 0 Z " fill="#ECE1CD" transform="translate(246,121)"/>
<path d="M0 0 C0.33 0 0.66 0 1 0 C0.97643433 1.38336548 0.97643433 1.38336548 0.95239258 2.79467773 C0.90089807 6.25567381 0.8634739 9.7162557 0.83520508 13.17749023 C0.82022958 14.66811598 0.79984181 16.15869851 0.77368164 17.64916992 C0.27608925 29.73357213 0.27608925 29.73357213 4 41 C6.13831531 43.2563007 6.13831531 43.2563007 8.6875 44.5625 C9.89986328 45.27599609 9.89986328 45.27599609 11.13671875 46.00390625 C11.75160156 46.33261719 12.36648437 46.66132813 13 47 C10.43055335 53.59683774 2.96331826 56.56346754 -3.078125 59.4921875 C-14.9111853 64.61984696 -27.50919617 67.71948205 -40.02734375 62.92578125 C-43.83464928 61.13898638 -47.01157179 58.98842821 -50 56 C-49.90234375 54.05078125 -49.90234375 54.05078125 -49 52 C-47.00390625 50.54296875 -47.00390625 50.54296875 -44.5625 49.1875 C-41.28314199 47.1522159 -39.46295697 45.91306866 -38.4375 42.125 C-38.293125 41.09375 -38.14875 40.0625 -38 39 C-37.01 39.99 -36.02 40.98 -35 42 C-35.33257812 41.02289063 -35.66515625 40.04578125 -36.0078125 39.0390625 C-36.40226279 36.24983569 -36.1823954 35.26655874 -34.56933594 32.90917969 C-32.41817673 30.62872153 -30.18686626 28.4923403 -27.875 26.375 C-27.1015625 25.63765625 -26.328125 24.9003125 -25.53125 24.140625 C-24.03165319 22.71268128 -22.52416192 21.29297206 -21.00805664 19.88256836 C-19.3592404 18.3367906 -17.75621458 16.76706241 -16.17578125 15.15234375 C-8.94555354 8 -8.94555354 8 -5 8 C-4.731875 7.4225 -4.46375 6.845 -4.1875 6.25 C-2.97790559 3.95813691 -1.64363461 2.00094648 0 0 Z " fill="#F0E2CC" transform="translate(230,152)"/>
<path d="M0 0 C27.72 0 55.44 0 84 0 C84 30.03 84 60.06 84 91 C83.67 91 83.34 91 83 91 C82.90203125 90.00742188 82.8040625 89.01484375 82.703125 87.9921875 C79.9336806 62.0411104 69.97596391 38.92184866 50.19140625 21.53125 C35.73029784 10.07224415 18.33125494 2.94360404 0 1 C0 0.67 0 0.34 0 0 Z " fill="#9AA3A7" transform="translate(343,0)"/>
<path d="M0 0 C27.39 0 54.78 0 83 0 C83 0.33 83 0.66 83 1 C81.5459375 1.22042969 81.5459375 1.22042969 80.0625 1.4453125 C55.32331178 5.47088318 33.56095345 16.83119141 18 37 C8.59355391 50.79890016 2.67569841 66.38747269 1 83 C0.67 83 0.34 83 0 83 C0 55.61 0 28.22 0 0 Z " fill="#99A1A6" transform="translate(0,0)"/>
<path d="M0 0 C5.960625 -0.061875 11.92125 -0.12375 18.0625 -0.1875 C19.93043213 -0.21481201 21.79836426 -0.24212402 23.72290039 -0.27026367 C25.22281246 -0.27903509 26.72273173 -0.28667747 28.22265625 -0.29296875 C28.98574097 -0.30831665 29.74882568 -0.32366455 30.53503418 -0.33947754 C36.56914882 -0.34239304 40.83247554 1.02029721 46 4.25 C47 6 47 6 46.9375 9.5625 C46 13 46 13 43.9375 14.4375 C42.9784375 14.7159375 42.9784375 14.7159375 42 15 C42 15.66 42 16.32 42 17 C42.598125 17.0825 43.19625 17.165 43.8125 17.25 C46.76224781 18.26134211 47.54953762 19.24412147 49 22 C49.39970143 25.66392978 49.28693556 28.22886069 48 31.6875 C44.0366581 36.27011407 40.08735661 37.82547851 34.16015625 38.32104492 C29.60476174 38.44279576 25.05494634 38.34946937 20.5 38.25 C18.89845979 38.22990783 17.29689529 38.21166185 15.6953125 38.1953125 C11.79626919 38.15152271 7.89840534 38.08264721 4 38 C4 40.31 4 42.62 4 45 C3.34 45 2.68 45 2 45 C2 46.98 2 48.96 2 51 C1.01 51 0.02 51 -1 51 C-0.67 34.17 -0.34 17.34 0 0 Z " fill="#EBF7FA" transform="translate(311,326)"/>
<path d="M0 0 C0.33 0 0.66 0 1 0 C1 29.37 1 58.74 1 89 C-22.43 89 -45.86 89 -70 89 C-66.99039265 87.49519633 -64.06125899 86.23447597 -60.92480469 85.04760742 C-37.76963297 76.20435247 -19.43339239 60.66723744 -9 38 C-3.74593588 25.73773713 -1.56858471 13.18161535 0 0 Z " fill="#98A1A5" transform="translate(426,335)"/>
<path d="M0 0 C0.33 0 0.66 0 1 0 C1.14695313 0.969375 1.29390625 1.93875 1.4453125 2.9375 C5.44339569 27.52060176 16.31886198 48.95821887 36.3125 64.375 C46.62721199 71.38178686 58.03442015 76.55536338 70 80 C70 80.33 70 80.66 70 81 C46.9 81 23.8 81 0 81 C0 54.27 0 27.54 0 0 Z " fill="#979FA4" transform="translate(0,343)"/>
<path d="M0 0 C5.22032741 3.22431987 10.16453459 2.87012893 16.09716797 2.578125 C20.30305448 2.38594376 23.34548102 2.57304052 27.125 4.5 C27.125 4.83 27.125 5.16 27.125 5.5 C21.68 6.985 21.68 6.985 16.125 8.5 C17.589375 9.11875 19.05375 9.7375 20.5625 10.375 C25.96171329 13.03260428 29.20588869 16.52905488 32.921875 21.1953125 C36.63390705 25.0784666 40.87364561 26.727742 46.125 27.5 C46.125 28.16 46.125 28.82 46.125 29.5 C43.41620665 30.85439668 41.11566732 30.56501451 38.125 30.5 C38.125 31.16 38.125 31.82 38.125 32.5 C38.69734375 32.74105469 39.2696875 32.98210937 39.859375 33.23046875 C42.55869057 34.74301627 44.26430479 36.55375243 46.375 38.8125 C50.33183621 42.88088881 54.19268797 45.71996958 59.125 48.5 C58.125 50.5 58.125 50.5 55.5 51.625 C51.90393393 52.55731343 48.82328515 52.56149168 45.125 52.5 C45.35896716 61.16848324 45.89476476 68.37921595 49.3828125 76.42578125 C49.62773437 77.11027344 49.87265625 77.79476562 50.125 78.5 C49.795 79.16 49.465 79.82 49.125 80.5 C47.08380212 78.88405168 45.08427063 77.2143618 43.125 75.5 C43.125 74.84 43.125 74.18 43.125 73.5 C42.465 73.5 41.805 73.5 41.125 73.5 C41.125 76.47 41.125 79.44 41.125 82.5 C40.135 82.995 40.135 82.995 39.125 83.5 C39.05023438 82.52417969 38.97546875 81.54835938 38.8984375 80.54296875 C38.76695312 79.27066406 38.63546875 77.99835938 38.5 76.6875 C38.38398438 75.42292969 38.26796875 74.15835938 38.1484375 72.85546875 C37.48042959 69.2773374 37.48042959 69.2773374 34.34375 67.9453125 C33.2815625 67.46835938 32.219375 66.99140625 31.125 66.5 C29.29138802 64.40003765 27.77969668 62.4794435 26.25 60.1875 C25.8478125 59.63126953 25.445625 59.07503906 25.03125 58.50195312 C22.14778248 54.28954054 22.125 52.9767081 22.125 47.5 C26.415 49.15 30.705 50.8 35.125 52.5 C33.866875 51.035625 32.60875 49.57125 31.3125 48.0625 C27.38802998 43.29049186 24.03025396 38.35512083 20.75 33.125 C12.42265438 20.00983121 4.34682144 8.58630397 -11.3125 4.0625 C-14.66787567 3.53270384 -15.7802661 3.6707315 -18.875 4.5 C-21.20800933 4.53888349 -23.54209801 4.5448635 -25.875 4.5 C-24.60256155 1.95512311 -23.25711153 1.04234446 -20.875 -0.5 C-13.82217183 -2.70917733 -6.34749534 -4.28425594 0 0 Z " fill="#E6F2F8" transform="translate(214.875,52.5)"/>
<path d="M0 0 C0.99 0.33 1.98 0.66 3 1 C4.33525717 1.07973476 5.67412083 1.10771338 7.01171875 1.09765625 C7.76904297 1.09443359 8.52636719 1.09121094 9.30664062 1.08789062 C10.48516602 1.07532227 10.48516602 1.07532227 11.6875 1.0625 C12.48478516 1.05798828 13.28207031 1.05347656 14.10351562 1.04882812 C16.06904257 1.0370585 18.03453085 1.01912348 20 1 C20.40089844 2.04929687 20.80179688 3.09859375 21.21484375 4.1796875 C22.76787375 7.80372815 24.79568346 10.28981073 27.5625 13.125 C30.64504886 16.29359702 32.61044234 18.77874916 34 23 C34.66 23 35.32 23 36 23 C35.505 22.01 35.505 22.01 35 21 C34.85000268 19.66179565 34.75163704 18.31752062 34.68359375 16.97265625 C34.64169922 16.18052734 34.59980469 15.38839844 34.55664062 14.57226562 C34.51732422 13.74404297 34.47800781 12.91582031 34.4375 12.0625 C34.39431641 11.23814453 34.35113281 10.41378906 34.30664062 9.56445312 C34.14318109 6.37050562 34 3.19882468 34 0 C34.66 0.33 35.32 0.66 36 1 C37.97724061 1.09672832 39.9579006 1.12979903 41.9375 1.125 C42.99839844 1.12757813 44.05929688 1.13015625 45.15234375 1.1328125 C48.07573057 1.12569346 48.07573057 1.12569346 51 0 C50.67 0.99 50.34 1.98 50 3 C49.91312201 4.54970448 49.8823134 6.10289707 49.88647461 7.6550293 C49.88655014 8.59577805 49.88662567 9.53652679 49.88670349 10.50578308 C49.89186478 11.51836685 49.89702606 12.53095062 49.90234375 13.57421875 C49.90446617 15.13267265 49.90446617 15.13267265 49.90663147 16.72261047 C49.91223344 20.04426948 49.92478628 23.36586133 49.9375 26.6875 C49.94251475 28.93815007 49.9470777 31.18880119 49.95117188 33.43945312 C49.96220351 38.95965837 49.97894357 44.47982439 50 50 C49.01 50 48.02 50 47 50 C47 47.03 47 44.06 47 41 C42.71 41 38.42 41 34 41 C34 46.28 34 51.56 34 57 C32.68 56.67 31.36 56.34 30 56 C30.165 54.88625 30.33 53.7725 30.5 52.625 C30.61794922 51.52285156 30.61794922 51.52285156 30.73828125 50.3984375 C30.91122606 48.81354029 31.13715985 47.23344309 31.41796875 45.6640625 C31.92520154 41.12102096 31.5151616 38.76263175 28.91015625 34.90625 C27.20382917 32.80803765 25.417252 30.8490738 23.578125 28.859375 C21.01223441 26.01356907 19.06188796 23.21357313 17 20 C16.67 19.67 16.34 19.34 16 19 C16.33 30.22 16.66 41.44 17 53 C16.34 53 15.68 53 15 53 C14.505 51.515 14.505 51.515 14 50 C13.34 50 12.68 50 12 50 C11.67 46.7 11.34 43.4 11 40 C8.69 40 6.38 40 4 40 C4 43.96 4 47.92 4 52 C3.01 52 2.02 52 1 52 C1.00222061 51.3927861 1.00444122 50.7855722 1.00672913 50.15995789 C1.02882312 43.84989001 1.04392387 37.53983309 1.05493164 31.22973633 C1.05996575 28.873612 1.06679346 26.5174908 1.07543945 24.16137695 C1.0875453 20.7781497 1.09323749 17.39496368 1.09765625 14.01171875 C1.10281754 12.95538742 1.10797882 11.89905609 1.11329651 10.81071472 C1.11337204 9.82992447 1.11344757 8.84913422 1.11352539 7.83862305 C1.115746 6.97480515 1.11796661 6.11098724 1.12025452 5.22099304 C1.08873316 2.82540879 1.08873316 2.82540879 0 0 Z " fill="#ECF9FA" transform="translate(117,324)"/>
<path d="M0 0 C5.61 0 11.22 0 17 0 C16.67 12.87 16.34 25.74 16 39 C11.05 39 6.1 39 1 39 C1 34.38 1 29.76 1 25 C-4.28 25 -9.56 25 -15 25 C-15 36.88 -15 48.76 -15 61 C-15.99 61 -16.98 61 -18 61 C-17.98428955 60.44014404 -17.9685791 59.88028809 -17.95239258 59.3034668 C-17.89000152 56.7649141 -17.85099782 54.22652271 -17.8125 51.6875 C-17.78736328 50.80642578 -17.76222656 49.92535156 -17.73632812 49.01757812 C-17.72666016 48.17001953 -17.71699219 47.32246094 -17.70703125 46.44921875 C-17.6913208 45.66893311 -17.67561035 44.88864746 -17.65942383 44.0847168 C-18.09114585 41.44208284 -18.86450554 40.5758948 -21 39 C-24.08391002 38.66638081 -24.08391002 38.66638081 -27 39 C-28.33901792 40.11126659 -28.33901792 40.11126659 -28.09765625 42.94140625 C-28.08605469 44.13636719 -28.07445312 45.33132813 -28.0625 46.5625 C-28.05347656 47.76003906 -28.04445312 48.95757812 -28.03515625 50.19140625 C-28.02355469 51.11824219 -28.01195312 52.04507813 -28 53 C-29.32 53 -30.64 53 -32 53 C-31.84152588 51.89462891 -31.68305176 50.78925781 -31.51977539 49.65039062 C-30.89522299 44.63415963 -30.77521586 39.64375979 -30.68359375 34.59375 C-30.66281265 33.6284436 -30.64203156 32.66313721 -30.62062073 31.6685791 C-30.55571038 28.61245213 -30.49651484 25.55624592 -30.4375 22.5 C-30.39425901 20.41665877 -30.35064302 18.33332529 -30.30664062 16.25 C-30.20008975 11.166746 -30.09866085 6.08341301 -30 1 C-25.05 1 -20.1 1 -15 1 C-15 5.62 -15 10.24 -15 15 C-9.72 15 -4.44 15 1 15 C0.505 7.575 0.505 7.575 0 0 Z " fill="#EBF8FA" transform="translate(231,325)"/>
<path d="M0 0 C5.28 0 10.56 0 16 0 C15.97679687 1.60230469 15.95359375 3.20460938 15.9296875 4.85546875 C15.91092597 6.96614117 15.89272618 9.07681863 15.875 11.1875 C15.85824219 12.24259766 15.84148437 13.29769531 15.82421875 14.38476562 C15.81455078 15.91713867 15.81455078 15.91713867 15.8046875 17.48046875 C15.78897705 18.88655396 15.78897705 18.88655396 15.77294922 20.32104492 C15.90937918 23.47827705 15.90937918 23.47827705 18 28 C21.63 28 25.26 28 29 28 C30.0592918 24.82212459 30.11458939 22.57411057 30.09765625 19.23828125 C30.09282227 17.56088867 30.09282227 17.56088867 30.08789062 15.84960938 C30.07951172 14.68236328 30.07113281 13.51511719 30.0625 12.3125 C30.05798828 11.13365234 30.05347656 9.95480469 30.04882812 8.74023438 C30.03703285 5.82680133 30.01909727 2.91339433 30 0 C35.61 0 41.22 0 47 0 C46.91298872 4.54258864 46.80607853 9.08321844 46.6875 13.625 C46.66494141 14.91019531 46.64238281 16.19539063 46.61914062 17.51953125 C46.58369141 18.76347656 46.54824219 20.00742187 46.51171875 21.2890625 C46.48553467 22.43068848 46.45935059 23.57231445 46.43237305 24.74853516 C45.77083055 29.7233646 44.18297595 32.98602061 40.375 36.25 C36.37375309 38.32472062 32.49592086 39.5632534 28 40 C26.515 39.505 26.515 39.505 25 39 C25.33 42.63 25.66 46.26 26 50 C25.34 50 24.68 50 24 50 C24 46.7 24 43.4 24 40 C23.01 40.495 23.01 40.495 22 41 C22 44.96 22 48.92 22 53 C21.01 53 20.02 53 19 53 C19.33 48.38 19.66 43.76 20 39 C17.69 39 15.38 39 13 39 C8.32777389 38.09261708 5.59099135 36.72737397 2.5625 33 C0.29947294 28.65498805 -0.12040451 25.6461607 -0.09765625 20.80078125 C-0.09443359 19.59228516 -0.09121094 18.38378906 -0.08789062 17.13867188 C-0.07951172 15.87603516 -0.07113281 14.61339844 -0.0625 13.3125 C-0.05573242 11.40114258 -0.05573242 11.40114258 -0.04882812 9.45117188 C-0.03702883 6.3007613 -0.01909318 3.15037481 0 0 Z " fill="#E8F5F7" transform="translate(256,326)"/>
<path d="M0 0 C0.24492188 0.72058594 0.48984375 1.44117188 0.7421875 2.18359375 C5.07181254 14.62006844 10.0620312 26.7952387 15 39 C12.36 39 9.72 39 7 39 C7 39.66 7 40.32 7 41 C6.34 41 5.68 41 5 41 C5 40.34 5 39.68 5 39 C3.02 39.495 3.02 39.495 1 40 C0.67 43.96 0.34 47.92 0 52 C-0.66 52 -1.32 52 -2 52 C-1.67 46.06 -1.34 40.12 -1 34 C-1.99 34.495 -1.99 34.495 -3 35 C-5.33168218 35.09715342 -7.66629957 35.12978217 -10 35.125 C-11.8871875 35.12886719 -11.8871875 35.12886719 -13.8125 35.1328125 C-17 35 -17 35 -19 34 C-19 35.98 -19 37.96 -19 40 C-23.29 39.67 -27.58 39.34 -32 39 C-32 41.64 -32 44.28 -32 47 C-33.485 47.495 -33.485 47.495 -35 48 C-35.24950451 42.27826525 -34.73294439 38.35089094 -32.515625 32.97265625 C-32.25875916 32.33943954 -32.00189331 31.70622284 -31.73724365 31.05381775 C-30.92107189 29.05112495 -30.08587904 27.05703525 -29.25 25.0625 C-28.7044823 23.73032761 -28.16020177 22.39764791 -27.6171875 21.06445312 C-24.86018681 14.3245957 -22.00081967 7.63530756 -19 1 C-16.20837429 0.83262201 -13.41670379 0.66606598 -10.625 0.5 C-9.8309375 0.45230469 -9.036875 0.40460938 -8.21875 0.35546875 C-2.2265625 0 -2.2265625 0 0 0 Z " fill="#EAF6FA" transform="translate(98,325)"/>
<path d="M0 0 C4.62 0 9.24 0 14 0 C13.65710938 0.99128906 13.31421875 1.98257813 12.9609375 3.00390625 C11.97832392 6.42076062 12.06649883 9.29681498 12.43481445 12.84741211 C13.2942668 22.29256169 10.60208427 27.28047204 4.64160156 34.44628906 C3.56591323 35.71732495 2.48741213 36.98598709 1.40576172 38.25195312 C-2.55934984 43.18251907 -4.69516057 49.176711 -7 55 C-10.66747938 53.16626031 -11.74129801 48.73414923 -13 45 C-13.29454579 42.54098893 -13.21136649 40.48355628 -13 38 C-13.598125 38.350625 -14.19625 38.70125 -14.8125 39.0625 C-17 40 -17 40 -20 39 C-19.49210938 38.3709375 -18.98421875 37.741875 -18.4609375 37.09375 C-14.20485579 31.80154353 -10.0307383 26.46592542 -6 21 C-7.546875 21.0928125 -7.546875 21.0928125 -9.125 21.1875 C-13.23468973 20.98864405 -15.48882496 20.05532197 -19 18 C-19 17.34 -19 16.68 -19 16 C-18.44054687 15.79246094 -17.88109375 15.58492187 -17.3046875 15.37109375 C-9.60638837 12.41306563 -2.32856834 8.75932324 5 5 C3.35 3.35 1.7 1.7 0 0 Z " fill="#A8BAC9" transform="translate(158,67)"/>
<path d="M0 0 C5.61 0 11.22 0 17 0 C16.67 18.81 16.34 37.62 16 57 C15.34 56.67 14.68 56.34 14 56 C13.7137306 53.30847736 13.53256862 50.69902132 13.4375 48 C13.67969985 43.10931377 13.67969985 43.10931377 12 39 C8.54187831 38.66661404 8.54187831 38.66661404 5 39 C2.71937172 42.42094242 2.78074993 43.68187222 2.875 47.6875 C2.89304688 48.68136719 2.91109375 49.67523438 2.9296875 50.69921875 C2.95289063 51.45847656 2.97609375 52.21773438 3 53 C2.01 53 1.02 53 0 53 C0 35.51 0 18.02 0 0 Z " fill="#EBF8FA" transform="translate(175,325)"/>
<path d="M0 0 C0.99 0 1.98 0 3 0 C3.03867188 1.61455078 3.03867188 1.61455078 3.078125 3.26171875 C3.15387511 18.97386371 3.15387511 18.97386371 10.265625 32.1328125 C12.45914999 33.61585613 14.60422196 34.87889874 17 36 C15.125 39.875 15.125 39.875 14 41 C8.80965268 41.95523767 3.81255982 42.12494353 -1.4375 42.0625 C-2.16904297 42.05798828 -2.90058594 42.05347656 -3.65429688 42.04882812 C-5.43623419 42.03718148 -7.21812863 42.01925191 -9 42 C-8.02143009 32.31730827 -6.47357146 23.11100819 -3.90234375 13.71875 C-3.22841996 10.94136713 -2.7936329 8.47109972 -2.50390625 5.65625 C-2 2 -2 2 0 0 Z " fill="#EDE2CF" transform="translate(226,163)"/>
<path d="M0 0 C0.33 0 0.66 0 1 0 C0.67 9.24 0.34 18.48 0 28 C-0.33 28 -0.66 28 -1 28 C-1.33 21.73 -1.66 15.46 -2 9 C-7.48682304 13.76180051 -12.8807552 18.60107448 -18.1875 23.5625 C-18.87263672 24.19607422 -19.55777344 24.82964844 -20.26367188 25.48242188 C-22.20340237 27.29520177 -24.10455465 29.14112023 -26 31 C-26.53020752 31.47953125 -27.06041504 31.9590625 -27.60668945 32.453125 C-29.67343701 34.52168327 -30.91369139 36.3272898 -31.28833008 39.24731445 C-31.26894453 41.82005378 -31.08029357 44.3165118 -30.8125 46.875 C-30.74224609 47.75414062 -30.67199219 48.63328125 -30.59960938 49.5390625 C-30.42386897 51.69481147 -30.21521664 53.84783362 -30 56 C-30.66 56 -31.32 56 -32 56 C-33.38938077 54.03852126 -34.7260411 52.03833424 -36 50 C-39.465 50.495 -39.465 50.495 -43 51 C-43 51.99 -43 52.98 -43 54 C-41.906875 53.938125 -40.81375 53.87625 -39.6875 53.8125 C-36 54 -36 54 -34.0625 55.375 C-33 57 -33 57 -33 59 C-33.70511719 58.67257813 -34.41023437 58.34515625 -35.13671875 58.0078125 C-38.23867167 56.91599278 -40.54006053 56.79614604 -43.8125 56.875 C-44.78832031 56.89304688 -45.76414063 56.91109375 -46.76953125 56.9296875 C-47.50558594 56.95289063 -48.24164063 56.97609375 -49 57 C-49.33 55.68 -49.66 54.36 -50 53 C-48.95199219 52.36384766 -48.95199219 52.36384766 -47.8828125 51.71484375 C-41.73143912 48.05094724 -41.73143912 48.05094724 -38.375 42.0625 C-38.25125 41.051875 -38.1275 40.04125 -38 39 C-37.01 39.99 -36.02 40.98 -35 42 C-35.33257812 41.02289063 -35.66515625 40.04578125 -36.0078125 39.0390625 C-36.40226279 36.24983569 -36.1823954 35.26655874 -34.56933594 32.90917969 C-32.41817673 30.62872153 -30.18686626 28.4923403 -27.875 26.375 C-27.1015625 25.63765625 -26.328125 24.9003125 -25.53125 24.140625 C-24.03165319 22.71268128 -22.52416192 21.29297206 -21.00805664 19.88256836 C-19.3592404 18.3367906 -17.75621458 16.76706241 -16.17578125 15.15234375 C-8.94555354 8 -8.94555354 8 -5 8 C-4.731875 7.4225 -4.46375 6.845 -4.1875 6.25 C-2.97790559 3.95813691 -1.64363461 2.00094648 0 0 Z " fill="#C2817A" transform="translate(230,152)"/>
<path d="M0 0 C0.99 0.66 1.98 1.32 3 2 C2.60167969 2.43570313 2.20335937 2.87140625 1.79296875 3.3203125 C-3.4307934 9.19227871 -6.20151018 14.01510179 -7 22 C-7.66 22 -8.32 22 -9 22 C-9.495 19.03 -9.495 19.03 -10 16 C-10.66 16 -11.32 16 -12 16 C-12 16.66 -12 17.32 -12 18 C-12.99 18 -13.98 18 -15 18 C-15 15.36 -15 12.72 -15 10 C-15.598125 11.010625 -16.19625 12.02125 -16.8125 13.0625 C-19.19643687 16.43918112 -21.70184605 18.22242334 -25.25 20.3125 C-30.39300581 23.39416702 -33.9248575 26.88130772 -37.796875 31.421875 C-40.07173935 34.08395031 -42.43084833 36.61777345 -44.875 39.125 C-45.95394531 40.24261719 -45.95394531 40.24261719 -47.0546875 41.3828125 C-49 43 -49 43 -52 43 C-52 42.01 -52 41.02 -52 40 C-50.02 39.505 -50.02 39.505 -48 39 C-47.95101562 38.36191406 -47.90203125 37.72382813 -47.8515625 37.06640625 C-47.77679688 36.24011719 -47.70203125 35.41382813 -47.625 34.5625 C-47.55539063 33.73878906 -47.48578125 32.91507813 -47.4140625 32.06640625 C-47.20910156 31.04353516 -47.20910156 31.04353516 -47 30 C-46.34 29.67 -45.68 29.34 -45 29 C-45 28.34 -45 27.68 -45 27 C-44.10075806 26.60844727 -44.10075806 26.60844727 -43.18334961 26.20898438 C-40.42497547 24.99356496 -37.68165308 23.74717655 -34.9375 22.5 C-33.99455078 22.09007812 -33.05160156 21.68015625 -32.08007812 21.2578125 C-24.19928464 17.63319668 -19.23247 13.09148384 -15.0625 5.5 C-14.381875 4.675 -13.70125 3.85 -13 3 C-9.0625 2.8125 -9.0625 2.8125 -6.97265625 2.98828125 C-4.05415466 3.00561888 -2.27932472 1.70949354 0 0 Z " fill="#180F1A" transform="translate(245,143)"/>
<path d="M0 0 C1.875 0.5625 1.875 0.5625 4 2 C4.7013284 4.32315031 5.36485174 6.65789079 6 9 C8.27154533 12.40731799 10.16587665 14.49373726 14 16 C14.12375 14.7625 14.2475 13.525 14.375 12.25 C14.75746305 9.1237803 15.30549523 6.71120763 17 4 C17.99 5.32 18.98 6.64 20 8 C20.99 7.67 21.98 7.34 23 7 C23.02578125 7.81082031 23.0515625 8.62164062 23.078125 9.45703125 C23.44020301 16.52578143 24.48728739 22.33040444 27.2578125 28.85546875 C27.62519531 29.91701172 27.62519531 29.91701172 28 31 C27.67 31.66 27.34 32.32 27 33 C24.95880212 31.38405168 22.95927063 29.7143618 21 28 C21 27.34 21 26.68 21 26 C20.34 26 19.68 26 19 26 C19 28.97 19 31.94 19 35 C18.01 35.495 18.01 35.495 17 36 C16.92523438 35.02417969 16.85046875 34.04835937 16.7734375 33.04296875 C16.64195312 31.77066406 16.51046875 30.49835938 16.375 29.1875 C16.25898438 27.92292969 16.14296875 26.65835938 16.0234375 25.35546875 C15.35542959 21.7773374 15.35542959 21.7773374 12.21875 20.4453125 C11.1565625 19.96835938 10.094375 19.49140625 9 19 C7.16638802 16.90003765 5.65469668 14.9794435 4.125 12.6875 C3.7228125 12.13126953 3.320625 11.57503906 2.90625 11.00195312 C0.30841185 7.20681202 -0.45605611 4.56747108 0 0 Z " fill="#DFECF4" transform="translate(237,100)"/>
<path d="M0 0 C1.65 0.66 3.3 1.32 5 2 C4.76654403 5.73529558 3.50420994 7.83794743 1.25 10.6875 C-3.35438046 16.53152135 -6.3045219 23.1020265 -9 30 C-12.66500999 28.167495 -13.68376755 23.71096373 -15 20 C-15.54598729 17.301136 -15.7996471 14.75485234 -16 12 C-14.5459375 11.2575 -14.5459375 11.2575 -13.0625 10.5 C-8.1250423 7.70750343 -4.124757 3.85351448 0 0 Z " fill="#A1B3C9" transform="translate(160,92)"/>
<path d="M0 0 C0.33 0 0.66 0 1 0 C0.41198668 6.11655088 -0.53313447 11.95981029 -1.9375 17.9375 C-3.40104877 24.2758348 -4.72329008 30.61645039 -6 37 C4.395 36.505 4.395 36.505 15 36 C10.28239525 40.71760475 9.5777436 40.98120395 3.25 41.02734375 C1.1139733 40.98948507 -1.02084232 40.936877 -3.15625 40.87304688 C-7.03543103 40.81153001 -9.65457481 41.02526985 -13 43 C-13.99 43 -14.98 43 -16 43 C-16 42.34 -16 41.68 -16 41 C-13 39 -13 39 -10 39 C-10 38.34 -10 37.68 -10 37 C-10.66 37 -11.32 37 -12 37 C-11.36290408 32.89679887 -9.99227796 29.57097076 -8.25 25.8125 C-4.51209811 17.49162516 -2.25884692 8.81549994 0 0 Z " fill="#E0BEAD" transform="translate(223,168)"/>
<path d="M0 0 C1.29805264 3.89415793 1.0331261 6.02415816 0 10 C-1.80890264 12.26401331 -3.95099176 13.93934822 -6.25 15.6875 C-6.82363281 16.14705078 -7.39726562 16.60660156 -7.98828125 17.08007812 C-9.11754863 17.98169138 -10.25367623 18.87478898 -11.39697266 19.75854492 C-12.85763521 20.88974643 -14.29359336 22.05266623 -15.7265625 23.21875 C-18.36064503 25.28256724 -20.90766894 26.72273282 -24 28 C-24.99 27.67 -25.98 27.34 -27 27 C-25.05973061 24.55250282 -23.11226194 22.11150163 -21.15234375 19.6796875 C-19.87836853 18.09357679 -18.61569461 16.49808789 -17.37890625 14.8828125 C-13.98035506 10.59087523 -11.08957046 9.18124448 -6 7 C-3.77221866 4.83097333 -1.86062819 2.48765307 0 0 Z " fill="#E1F0F8" transform="translate(165,79)"/>
<path d="M0 0 C2.751348 0.35731792 3.78917569 0.75588764 5.6328125 2.890625 C6.12523437 3.66921875 6.61765625 4.4478125 7.125 5.25 C7.62257812 6.01828125 8.12015625 6.7865625 8.6328125 7.578125 C9.99702742 9.9947343 11.03267925 12.40205284 12 15 C3.65773696 14.85199211 -7.66413808 14.33586192 -14 8 C-14.04063832 6.33382885 -14.042721 4.66611905 -14 3 C-12.58208592 3.45445964 -11.16571954 3.91374944 -9.75 4.375 C-8.96109375 4.63023438 -8.1721875 4.88546875 -7.359375 5.1484375 C-5.13372042 5.95173667 -3.09068328 6.89711662 -1 8 C-0.67 5.36 -0.34 2.72 0 0 Z " fill="#A4B5C4" transform="translate(198,78)"/>
<path d="M0 0 C0.33 0.99 0.66 1.98 1 3 C-4.7646731 8.58754627 -11.43004945 14.84020634 -19.859375 15.08203125 C-22.28474449 14.84566049 -24.61878896 14.51170705 -27 14 C-27.33 13.01 -27.66 12.02 -28 11 C-27.12601563 10.67128906 -27.12601563 10.67128906 -26.234375 10.3359375 C-20.17730634 7.99310906 -14.47809498 5.25520744 -8.76171875 2.171875 C-5.89959287 0.95739443 -4.0628312 0.84821368 -1 1 C-0.67 0.67 -0.34 0.34 0 0 Z " fill="#E2EEF6" transform="translate(167,72)"/>
<path d="M0 0 C9.31280654 -0.60735695 18.50103932 2.46903415 26 8 C34.19463434 15.55011254 40.04364181 24.68453283 46 34 C48.89334492 38.48303442 52.00091778 42.35393609 55.609375 46.265625 C57 48 57 48 57 50 C53 48.66666667 49 47.33333333 45 46 C44.34 47.32 43.68 48.64 43 50 C43 48.02 43 46.04 43 44 C43.66 43.67 44.32 43.34 45 43 C47.35981813 43.93578995 49.69631264 44.93347808 52 46 C51.5153125 45.42894531 51.030625 44.85789063 50.53125 44.26953125 C46.66804889 39.59654375 43.26108415 34.91832023 40.1875 29.6875 C31.08564562 14.63648835 22.02626385 6.54389005 4.82519531 2.16577148 C3.21847498 1.77029975 1.60947029 1.38412691 0 1 C0 0.67 0 0.34 0 0 Z " fill="#585D5A" transform="translate(193,55)"/>
<path d="M0 0 C1.875 0.5625 1.875 0.5625 4 2 C4.7013284 4.32315031 5.36485174 6.65789079 6 9 C8.27154533 12.40731799 10.16587665 14.49373726 14 16 C14.12375 14.7625 14.2475 13.525 14.375 12.25 C14.75746305 9.1237803 15.30549523 6.71120763 17 4 C18 5 18 5 18.11352539 7.13305664 C18.10828857 8.04949951 18.10305176 8.96594238 18.09765625 9.91015625 C18.09443359 10.89951172 18.09121094 11.88886719 18.08789062 12.90820312 C18.07951172 13.94912109 18.07113281 14.99003906 18.0625 16.0625 C18.05798828 17.10728516 18.05347656 18.15207031 18.04882812 19.22851562 C18.03699913 21.8190666 18.02051689 24.40950559 18 27 C16 26 16 26 15.1875 23.5625 C14.795625 22.716875 14.40375 21.87125 14 21 C12.87464844 20.61908203 12.87464844 20.61908203 11.7265625 20.23046875 C8.06586283 18.5784338 6.36167142 15.98412521 4.1875 12.75 C3.78080078 12.18925781 3.37410156 11.62851563 2.95507812 11.05078125 C0.33384113 7.23566992 -0.46694824 4.59978868 0 0 Z " fill="#A2B1C5" transform="translate(237,100)"/>
<path d="M0 0 C3.375 -0.125 3.375 -0.125 7 0 C9.81197457 2.81197457 9.69902557 5.84011245 10.125 9.625 C10.21136719 10.33140625 10.29773438 11.0378125 10.38671875 11.765625 C10.59881183 13.50950141 10.80040991 15.2546484 11 17 C10.34 17.33 9.68 17.66 9 18 C8.80083984 16.51886719 8.80083984 16.51886719 8.59765625 15.0078125 C8.42105469 13.72648438 8.24445313 12.44515625 8.0625 11.125 C7.88847656 9.84882813 7.71445313 8.57265625 7.53515625 7.2578125 C7.18566773 4.12440546 7.18566773 4.12440546 6 2 C4.35 2.33 2.7 2.66 1 3 C1 3.66 1 4.32 1 5 C2.65 4.67 4.3 4.34 6 4 C6 5.98 6 7.96 6 10 C5.01 9.67 4.02 9.34 3 9 C3.33 8.34 3.66 7.68 4 7 C3.01 7.33 2.02 7.66 1 8 C1 8.99 1 9.98 1 11 C0.01 11 -0.98 11 -2 11 C-1.01 12.485 -1.01 12.485 0 14 C0.125 16.6875 0.125 16.6875 0 19 C1.65 18.34 3.3 17.68 5 17 C4 20 4 20 2.4375 21.125 C-1.01657007 22.36492259 -4.34914566 22.63491457 -8 23 C-7.505 21.515 -7.505 21.515 -7 20 C-4.9375 19.3125 -4.9375 19.3125 -3 19 C-3.165 18.319375 -3.33 17.63875 -3.5 16.9375 C-4.72000472 9.76997226 -3.89222286 5.95996626 0 0 Z " fill="#462F35" transform="translate(244,120)"/>
<path d="M0 0 C2.5 0.3125 2.5 0.3125 5 1 C6.44207941 3.88415883 6.09394887 6.41721528 6.0625 9.625 C6.05347656 10.81351563 6.04445312 12.00203125 6.03515625 13.2265625 C6.02355469 14.14179688 6.01195312 15.05703125 6 16 C1.545 17.485 1.545 17.485 -3 19 C-2.979375 18.071875 -2.95875 17.14375 -2.9375 16.1875 C-2.84230396 12.97713989 -2.84230396 12.97713989 -4 10 C-3.34 9.67 -2.68 9.34 -2 9 C-0.86649466 6.98330173 -0.86649466 6.98330173 0 5 C0.99 5 1.98 5 3 5 C2.67 5.66 2.34 6.32 2 7 C2.33 7.33 2.66 7.66 3 8 C3.33 6.35 3.66 4.7 4 3 C0.45481116 4.39759905 0.45481116 4.39759905 -3 6 C-1.125 1.125 -1.125 1.125 0 0 Z " fill="#B67F7B" transform="translate(246,121)"/>
<path d="M0 0 C0 3 0 3 -2.375 6.0625 C-5.60921992 10.33203677 -6.29663915 14.7825322 -7 20 C-7.66 20 -8.32 20 -9 20 C-9.33 18.02 -9.66 16.04 -10 14 C-10.99 14.33 -11.98 14.66 -13 15 C-12.85892253 13.54119891 -12.71197585 12.08296449 -12.5625 10.625 C-12.48128906 9.81289062 -12.40007812 9.00078125 -12.31640625 8.1640625 C-12 6 -12 6 -11 4 C-9.00390625 3.18359375 -9.00390625 3.18359375 -6.5625 2.4375 C-3.20847148 1.40082993 -3.20847148 1.40082993 0 0 Z " fill="#9499B4" transform="translate(245,145)"/>
<path d="M0 0 C0.33 0 0.66 0 1 0 C1.03738281 0.73605469 1.07476562 1.47210938 1.11328125 2.23046875 C1.58975994 9.57560617 1.58975994 9.57560617 5 16 C5 16.66 5 17.32 5 18 C5.763125 17.505 6.52625 17.01 7.3125 16.5 C10 15 10 15 13 15 C13.34933594 15.84304687 13.69867188 16.68609375 14.05859375 17.5546875 C14.51363281 18.65039062 14.96867188 19.74609375 15.4375 20.875 C15.88996094 21.96554688 16.34242188 23.05609375 16.80859375 24.1796875 C17.49543463 25.80558624 18.21065887 27.42131774 19 29 C14.28816972 27.71370473 11.39362617 25.99101949 7.8125 22.6875 C6.97332031 21.92824219 6.13414062 21.16898438 5.26953125 20.38671875 C1.95397877 16.89996734 0.13539905 14.53993857 -0.29296875 9.66796875 C-0.25816406 8.51941406 -0.22335938 7.37085937 -0.1875 6.1875 C-0.16042969 5.02605469 -0.13335937 3.86460938 -0.10546875 2.66796875 C-0.07066406 1.78753906 -0.03585938 0.90710938 0 0 Z " fill="#CFDCE4" transform="translate(171,74)"/>
<path d="M0 0 C0.99 0.33 1.98 0.66 3 1 C2.360625 1.5775 1.72125 2.155 1.0625 2.75 C-3.04324477 7.2289943 -2.32042247 12.96744961 -2.30078125 18.78125 C-1.89029784 23.17395557 -0.6057543 25.49851765 2 29 C0.56988027 29.86646667 -0.86940619 30.71781829 -2.3125 31.5625 C-3.11300781 32.03816406 -3.91351563 32.51382813 -4.73828125 33.00390625 C-7 34 -7 34 -10 33 C-9.175 32.195625 -8.35 31.39125 -7.5 30.5625 C-4.05085825 25.87051108 -4.66836417 20.86269868 -5.00976562 15.30688477 C-5.27379817 10.02083317 -4.48364248 6.70584891 -2 2 C-1.34 1.34 -0.68 0.68 0 0 Z " fill="#4B4754" transform="translate(174,65)"/>
<path d="M0 0 C0.99 0.66 1.98 1.32 3 2 C1.60984189 2.67842139 0.2125473 3.342229 -1.1875 4 C-1.96480469 4.37125 -2.74210937 4.7425 -3.54296875 5.125 C-6 6 -6 6 -11 6 C-11.33 9.63 -11.66 13.26 -12 17 C-12.99 17.33 -13.98 17.66 -15 18 C-15 15.36 -15 12.72 -15 10 C-15.61875 11.03125 -16.2375 12.0625 -16.875 13.125 C-20.2341958 17.90576852 -24.92622752 20.31040798 -30 23 C-30.66 22.34 -31.32 21.68 -32 21 C-31.41992188 20.72027344 -30.83984375 20.44054687 -30.2421875 20.15234375 C-23.20127959 16.53894052 -18.91663415 12.51382927 -15.125 5.5625 C-14.42375 4.716875 -13.7225 3.87125 -13 3 C-9.0625 2.8125 -9.0625 2.8125 -6.97265625 2.98828125 C-4.05415466 3.00561888 -2.27932472 1.70949354 0 0 Z " fill="#50383C" transform="translate(245,143)"/>
<path d="M0 0 C1.81358154 0.47505678 3.62584179 0.95516042 5.4375 1.4375 C6.44683594 1.70433594 7.45617187 1.97117187 8.49609375 2.24609375 C11 3 11 3 12 4 C11.91036938 5.69141656 11.75422324 7.37959602 11.5625 9.0625 C11.46066406 9.98160156 11.35882813 10.90070313 11.25390625 11.84765625 C11.17011719 12.55792969 11.08632812 13.26820312 11 14 C6.44731195 12.82930879 4.62112001 10.61834937 2.015625 6.94921875 C0.82364224 4.66152876 0.40172439 2.53697687 0 0 Z " fill="#E9F7FD" transform="translate(240,102)"/>
<path d="M0 0 C3.01243677 1.05435287 3.92565011 2.14060283 5.5 4.875 C5.5 5.535 5.5 6.195 5.5 6.875 C6.16 6.875 6.82 6.875 7.5 6.875 C6.875 8.8125 6.875 8.8125 5.5 10.875 C2.40959707 12.05229636 0.43666621 12.23720006 -2.671875 11.03515625 C-4.65928461 10.04497522 -6.58911433 9.00504153 -8.5 7.875 C-8.5 7.545 -8.5 7.215 -8.5 6.875 C-3.10550707 6.60070375 0.01925805 6.51444354 4.5 9.875 C3.46287824 7.79238855 3.46287824 7.79238855 1.5 5.875 C-2.10465748 5.06185089 -2.10465748 5.06185089 -5.5 4.875 C-5.5 3.885 -5.5 2.895 -5.5 1.875 C-2.5 -0.125 -2.5 -0.125 0 0 Z " fill="#F4D8C1" transform="translate(192.5,201.125)"/>
<path d="M0 0 C0.90492188 0.30744141 0.90492188 0.30744141 1.828125 0.62109375 C3.02695313 1.02521484 3.02695313 1.02521484 4.25 1.4375 C5.03890625 1.70433594 5.8278125 1.97117188 6.640625 2.24609375 C9.9043899 3.28898552 12.5557042 4 16 4 C16 4.66 16 5.32 16 6 C20.29 6.33 24.58 6.66 29 7 C26.36723647 9.63276353 25.10490842 9.29844863 21.4375 9.3125 C13.19654196 9.16445884 6.47597453 7.1475695 0 2 C0 1.34 0 0.68 0 0 Z " fill="#DAD6CF" transform="translate(182,208)"/>
<path d="M0 0 C0.99 0 1.98 0 3 0 C3 3.3 3 6.6 3 10 C3.66 10.33 4.32 10.66 5 11 C4.34 11 3.68 11 3 11 C2.67 12.65 2.34 14.3 2 16 C0.35 15.67 -1.3 15.34 -3 15 C-3.33 10.71 -3.66 6.42 -4 2 C-3.01 1.67 -2.02 1.34 -1 1 C-1 4.3 -1 7.6 -1 11 C-0.34 11 0.32 11 1 11 C0.67 7.37 0.34 3.74 0 0 Z " fill="#111016" transform="translate(281,365)"/>
<path d="M0 0 C4.95 0.33 9.9 0.66 15 1 C15 1.33 15 1.66 15 2 C10.71 2 6.42 2 2 2 C2.33 18.83 2.66 35.66 3 53 C2.01 53 1.02 53 0 53 C0 35.51 0 18.02 0 0 Z " fill="#BCC6D7" transform="translate(175,325)"/>
<path d="M0 0 C2.32817964 0.36760731 4.6618385 0.70241581 7 1 C6.34 1.66 5.68 2.32 5 3 C2.51660156 2.9675293 2.51660156 2.9675293 -0.609375 2.57421875 C-1.75108154 2.43733643 -2.89278809 2.3004541 -4.0690918 2.15942383 C-5.2837915 2.00368896 -6.49849121 1.8479541 -7.75 1.6875 C-10.20939104 1.39119368 -12.66902587 1.09690356 -15.12890625 0.8046875 C-16.31371582 0.66256836 -17.49852539 0.52044922 -18.71923828 0.37402344 C-24.46724301 -0.28127819 -30.22316742 -0.69033615 -36 -1 C-36 -1.33 -36 -1.66 -36 -2 C-32.04257936 -2.22885198 -28.08418582 -2.42926497 -24.125 -2.625 C-23.01640625 -2.68945312 -21.9078125 -2.75390625 -20.765625 -2.8203125 C-3.6268434 -3.6268434 -3.6268434 -3.6268434 0 0 Z " fill="#190B13" transform="translate(217,126)"/>
<path d="M0 0 C2 1 2 1 3.0703125 3.72265625 C3.59238281 5.37587891 3.59238281 5.37587891 4.125 7.0625 C4.47820312 8.16722656 4.83140625 9.27195312 5.1953125 10.41015625 C5.46085937 11.26480469 5.72640625 12.11945313 6 13 C2.37 13.33 -1.26 13.66 -5 14 C-2.05357143 3.82142857 -2.05357143 3.82142857 0 0 Z " fill="#22182E" transform="translate(87,339)"/>
<path d="M0 0 C5.0008285 4.28642443 7.22165168 9.04639645 10 15 C5.71 14.67 1.42 14.34 -3 14 C-1.68 13.67 -0.36 13.34 1 13 C0.67 8.71 0.34 4.42 0 0 Z " fill="#8B99B1" transform="translate(200,78)"/>
<path d="M0 0 C1.25 2.0625 1.25 2.0625 2 4 C-0.49031084 6.07525903 -2.29089974 7.00649557 -5.55859375 6.9765625 C-8.05338223 6.71469818 -10.52365349 6.39910051 -13 6 C-13.33 5.01 -13.66 4.02 -14 3 C-12.42274653 2.29866401 -10.83788667 1.614417 -9.25 0.9375 C-7.92742187 0.36322266 -7.92742187 0.36322266 -6.578125 -0.22265625 C-3.82727459 -1.05207933 -2.61688887 -1.1215238 0 0 Z " fill="#D8E3EC" transform="translate(153,80)"/>
<path d="M0 0 C5.61 0 11.22 0 17 0 C17.33 1.32 17.66 2.64 18 4 C8.595 4.495 8.595 4.495 -1 5 C-0.67 3.35 -0.34 1.7 0 0 Z " fill="#100819" transform="translate(326,350)"/>
<path d="M0 0 C0.33 0 0.66 0 1 0 C1 11.88 1 23.76 1 36 C1.66 36 2.32 36 3 36 C2.67 40.62 2.34 45.24 2 50 C1.01 50 0.02 50 -1 50 C-0.67 33.5 -0.34 17 0 0 Z " fill="#BDC8D9" transform="translate(311,327)"/>
<path d="M0 0 C-2.33214148 1.20628008 -4.49642139 2.1654738 -7 3 C-7 3.99 -7 4.98 -7 6 C-5.906875 5.938125 -4.81375 5.87625 -3.6875 5.8125 C0 6 0 6 1.9375 7.375 C3 9 3 9 3 11 C1.94232422 10.50886719 1.94232422 10.50886719 0.86328125 10.0078125 C-2.23867167 8.91599278 -4.54006053 8.79614604 -7.8125 8.875 C-8.78832031 8.89304688 -9.76414063 8.91109375 -10.76953125 8.9296875 C-11.50558594 8.95289063 -12.24164063 8.97609375 -13 9 C-13.33 7.68 -13.66 6.36 -14 5 C-9.10703712 1.00574458 -6.55344817 -0.6687192 0 0 Z " fill="#C4908C" transform="translate(194,200)"/>
<path d="M0 0 C0.33 0 0.66 0 1 0 C1.33 16.83 1.66 33.66 2 51 C0.68 51 -0.64 51 -2 51 C-1.84152588 49.89011719 -1.68305176 48.78023438 -1.51977539 47.63671875 C-0.90468701 42.69704217 -0.77601349 37.7855116 -0.68359375 32.8125 C-0.66281265 31.86938965 -0.64203156 30.9262793 -0.62062073 29.95458984 C-0.55572915 26.96979392 -0.49652379 23.98491714 -0.4375 21 C-0.39425721 18.9648357 -0.35064117 16.9296793 -0.30664062 14.89453125 C-0.20011051 9.92976837 -0.09867661 4.96492493 0 0 Z " fill="#C3CEE0" transform="translate(201,327)"/>
<path d="M0 0 C0.99 0.33 1.98 0.66 3 1 C2.98839844 2.07378906 2.97679687 3.14757812 2.96484375 4.25390625 C2.95545685 5.69010241 2.94635762 7.12630048 2.9375 8.5625 C2.92912109 9.26697266 2.92074219 9.97144531 2.91210938 10.69726562 C2.89123053 15.22797405 3.2814506 19.51330964 4 24 C4 24.66 4 25.32 4 26 C3.34 26 2.68 26 2 26 C-0.23413013 22.64880481 -0.23847762 21.5822245 -0.1953125 17.67578125 C-0.18886719 16.64775391 -0.18242187 15.61972656 -0.17578125 14.56054688 C-0.15064453 12.95276367 -0.15064453 12.95276367 -0.125 11.3125 C-0.11597656 10.22904297 -0.10695312 9.14558594 -0.09765625 8.02929688 C-0.0740734 5.3526429 -0.04116126 2.67643203 0 0 Z " fill="#1A0B0F" transform="translate(230,161)"/>
<path d="M0 0 C3.70671886 1.23557295 3.88274832 2.14905706 5.6875 5.5 C8.43396587 10.31496283 11.64432118 14.18505592 15.4609375 18.1875 C17 20 17 20 17 22 C13 20.66666667 9 19.33333333 5 18 C4.34 19.32 3.68 20.64 3 22 C3 20.02 3 18.04 3 16 C3.66 15.67 4.32 15.34 5 15 C7.35981813 15.93578995 9.69631264 16.93347808 12 18 C11.46890625 17.3709375 10.9378125 16.741875 10.390625 16.09375 C6.13310533 10.93500354 2.71757111 6.11453499 0 0 Z " fill="#5A6267" transform="translate(233,83)"/>
<path d="M0 0 C0.33 0 0.66 0 1 0 C0.3883635 6.74174609 -0.82237115 13.11868151 -2.4375 19.6875 C-2.65470703 20.59822266 -2.87191406 21.50894531 -3.09570312 22.44726562 C-4.20723225 27.04358875 -5.40987268 31.54024757 -7 36 C-9.62620568 26.86888488 -5.4598458 17.57473356 -2.61767578 8.93261719 C-1.67230237 5.97468205 -0.83508715 2.99077724 0 0 Z " fill="#69402F" transform="translate(223,168)"/>
<path d="M0 0 C5.28 0.33 10.56 0.66 16 1 C16 2.32 16 3.64 16 5 C8.08 5.495 8.08 5.495 0 6 C0 4.02 0 2.04 0 0 Z " fill="#1B0E25" transform="translate(325,335)"/>
<path d="M0 0 C0.44730469 0.40992187 0.89460937 0.81984375 1.35546875 1.2421875 C6.88875015 6.3099233 6.88875015 6.3099233 14 8 C15.625 10.5 15.625 10.5 17 13 C16.29875 12.71125 15.5975 12.4225 14.875 12.125 C11.94547497 10.97866412 8.99078347 9.97374346 6 9 C6.04125 10.27875 6.0825 11.5575 6.125 12.875 C6.1953125 15.0546875 6.1953125 15.0546875 6 17 C5.34 17.66 4.68 18.32 4 19 C4 17.35 4 15.7 4 14 C3.34 13.67 2.68 13.34 2 13 C2.33 12.67 2.66 12.34 3 12 C3.47735945 7.70376494 2.30810245 5.55832461 0 2 C0 1.34 0 0.68 0 0 Z " fill="#AAB7C8" transform="translate(229,89)"/>
<path d="M0 0 C3.04964687 2.95723332 5.99754634 5.99958942 8.875 9.125 C9.49117187 9.78757812 10.10734375 10.45015625 10.7421875 11.1328125 C11.15726563 11.74898437 11.57234375 12.36515625 12 13 C11.67 13.99 11.34 14.98 11 16 C10.1028125 15.2884375 10.1028125 15.2884375 9.1875 14.5625 C6.99617076 12.83534256 6.99617076 12.83534256 4 12 C4 15.3 4 18.6 4 22 C3.34 21.67 2.68 21.34 2 21 C2.02320313 20.11957031 2.04640625 19.23914063 2.0703125 18.33203125 C2.08835938 17.17058594 2.10640625 16.00914063 2.125 14.8125 C2.14820313 13.66394531 2.17140625 12.51539062 2.1953125 11.33203125 C2.00313801 8.05353443 1.30350369 5.9713726 0 3 C0 2.01 0 1.02 0 0 Z " fill="#8C99A6" transform="translate(212,83)"/>
<path d="M0 0 C0.99 0 1.98 0 3 0 C4.16452945 1.46397988 5.32765993 2.92911677 6.48046875 4.40234375 C10.21667964 8.33064775 15.69656735 10.33707092 21 11 C18.70226955 12.41116322 17.43446427 13.03929455 14.7109375 12.79296875 C13.94007813 12.59316406 13.16921875 12.39335937 12.375 12.1875 C11.21097656 11.89939453 11.21097656 11.89939453 10.0234375 11.60546875 C8 11 8 11 6 10 C5.5 8 5.5 8 5 6 C4.34 5.67 3.68 5.34 3 5 C2.67 5.66 2.34 6.32 2 7 C2 6.34 2 5.68 2 5 C1.34 5 0.68 5 0 5 C0 3.35 0 1.7 0 0 Z " fill="#110815" transform="translate(176,205)"/>
<path d="M0 0 C0.66 0 1.32 0 2 0 C2 1.98 2 3.96 2 6 C2.66 6.33 3.32 6.66 4 7 C1.21751321 9.93706939 -1.87938211 12.43415863 -5 15 C-5.99 14.01 -6.98 13.02 -8 12 C-7.34 12 -6.68 12 -6 12 C-6 11.01 -6 10.02 -6 9 C-3.5 6.3125 -3.5 6.3125 -1 4 C-1.66 3.67 -2.32 3.34 -3 3 C-2.34 3 -1.68 3 -1 3 C-0.67 2.01 -0.34 1.02 0 0 Z " fill="#120E1B" transform="translate(244,195)"/>
<path d="M0 0 C1.75 0.75 1.75 0.75 4 2 C5.0725 2.53625 6.145 3.0725 7.25 3.625 C8.61125 4.305625 8.61125 4.305625 10 5 C6.58983503 7.86453858 3.09305456 9.34703566 -1 11 C-0.67 9.02 -0.34 7.04 0 5 C-0.99 4.67 -1.98 4.34 -3 4 C-2.67 3.01 -2.34 2.02 -2 1 C-1.34 0.67 -0.68 0.34 0 0 Z " fill="#190D19" transform="translate(155,66)"/>
<path d="M0 0 C0.99 0 1.98 0 3 0 C3 0.66 3 1.32 3 2 C3.71542969 2.09152344 4.43085938 2.18304688 5.16796875 2.27734375 C8.50296243 3.12834214 10.54539173 4.53328727 13.3125 6.5625 C14.19550781 7.20316406 15.07851562 7.84382813 15.98828125 8.50390625 C16.65214844 8.99761719 17.31601563 9.49132812 18 10 C17.01 10.33 16.02 10.66 15 11 C13.33333333 10 11.66666667 9 10 8 C8.6772035 7.62704115 7.34217389 7.29573323 6 7 C2.54758052 6.22843655 -0.05853552 5.02225683 -3 3 C-2.01 2.67 -1.02 2.34 0 2 C0 1.34 0 0.68 0 0 Z " fill="#AEC0C4" transform="translate(180,63)"/>
<path d="M0 0 C0.33 0 0.66 0 1 0 C1.33 15.18 1.66 30.36 2 46 C1.01 46 0.02 46 -1 46 C-0.67 30.82 -0.34 15.64 0 0 Z " fill="#C6D1E0" transform="translate(119,330)"/>
<path d="M0 0 C0 0.66 0 1.32 0 2 C-12.48519362 7.55580866 -12.48519362 7.55580866 -19 8 C-18.1875 5.5625 -18.1875 5.5625 -17 3 C-14 2 -14 2 -11 2.0625 C-6.76819213 1.97433734 -4.47771302 -0.24203854 0 0 Z " fill="#E5DFD5" transform="translate(230,208)"/>
<path d="M0 0 C0.33 0 0.66 0 1 0 C1.33 12.21 1.66 24.42 2 37 C1.01 37 0.02 37 -1 37 C-1.11522956 24.61922367 -0.89587605 12.3502912 0 0 Z " fill="#C7D2E0" transform="translate(214,349)"/>
<path d="M0 0 C0.33 0 0.66 0 1 0 C1.33 15.18 1.66 30.36 2 46 C1.01 46 0.02 46 -1 46 C-0.67 30.82 -0.34 15.64 0 0 Z " fill="#ADB7C7" transform="translate(165,328)"/>
<path d="M0 0 C0.66 0 1.32 0 2 0 C2.06058594 0.77730469 2.12117187 1.55460937 2.18359375 2.35546875 C2.73467787 5.18742244 2.73467787 5.18742244 5.28515625 6.36328125 C6.20167969 6.67652344 7.11820313 6.98976563 8.0625 7.3125 C9.44115234 7.80169922 9.44115234 7.80169922 10.84765625 8.30078125 C11.55792969 8.53152344 12.26820313 8.76226562 13 9 C12.67 9.66 12.34 10.32 12 11 C9.93734178 11.3911938 7.90556733 11.50674519 5.8125 11.65625 C5.214375 11.7696875 4.61625 11.883125 4 12 C3.67 12.66 3.34 13.32 3 14 C2.49528803 12.23050388 1.99639315 10.45934777 1.5 8.6875 C1.2215625 7.70136719 0.943125 6.71523437 0.65625 5.69921875 C0 3 0 3 0 0 Z " fill="#6A5563" transform="translate(182,81)"/>
<path d="M0 0 C0.33 0.99 0.66 1.98 1 3 C-0.375 4.5 -0.375 4.5 -2 6 C-2.66 6 -3.32 6 -4 6 C-4.66 7.32 -5.32 8.64 -6 10 C-9 9 -9 9 -11 8 C-11 7.01 -11 6.02 -11 5 C-7.37 3.35 -3.74 1.7 0 0 Z " fill="#1E1B25" transform="translate(232,208)"/>
<path d="M0 0 C0.66 0 1.32 0 2 0 C2 0.99 2 1.98 2 3 C2.598125 3.28875 3.19625 3.5775 3.8125 3.875 C6 5 6 5 9 7 C11.84120234 6.64484971 14.28047752 5.90650749 17 5 C17.99 6.485 17.99 6.485 19 8 C14.84009331 9.58472636 11.42897197 10.81348465 7 10 C4.30472638 7.96357104 1.98277372 5.7395128 0 3 C0 2.01 0 1.02 0 0 Z " fill="#DDD8D1" transform="translate(176,165)"/>
<path d="M0 0 C0.87914062 0.01353516 1.75828125 0.02707031 2.6640625 0.04101562 C4.81797552 0.07613377 6.97157004 0.12993306 9.125 0.1875 C9.125 0.5175 9.125 0.8475 9.125 1.1875 C7.24554688 1.36925781 7.24554688 1.36925781 5.328125 1.5546875 C3.67704135 1.72354833 2.02600191 1.89284183 0.375 2.0625 C-0.45 2.14113281 -1.275 2.21976563 -2.125 2.30078125 C-3.32382813 2.42646484 -3.32382813 2.42646484 -4.546875 2.5546875 C-5.2800293 2.62800293 -6.01318359 2.70131836 -6.76855469 2.77685547 C-9.07557038 3.22660053 -10.7837441 4.13974138 -12.875 5.1875 C-13.865 5.1875 -14.855 5.1875 -15.875 5.1875 C-15.875 4.5275 -15.875 3.8675 -15.875 3.1875 C-10.495384 -0.17255524 -6.12121851 -0.1797647 0 0 Z " fill="#CB9981" transform="translate(222.875,205.8125)"/>
<path d="M0 0 C0.66 0 1.32 0 2 0 C3.10228696 4.40914783 3.07654536 8.48382401 3 13 C1.02 13 -0.96 13 -3 13 C-3 12.34 -3 11.68 -3 11 C-2.34 11 -1.68 11 -1 11 C-1 10.34 -1 9.68 -1 9 C-1.66 8.67 -2.32 8.34 -3 8 C-2.34 8 -1.68 8 -1 8 C-0.67 5.36 -0.34 2.72 0 0 Z " fill="#A8BBCF" transform="translate(198,78)"/>
<path d="M0 0 C0 3.35762885 -0.39462725 3.84515966 -2.375 6.375 C-4.4485389 9.14167655 -5.8973697 11.6921091 -7 15 C-8.17571451 11.32589215 -8.07366746 7.83070817 -8 4 C-5.36 2.68 -2.72 1.36 0 0 Z " fill="#A8AECA" transform="translate(245,145)"/>
<path d="M0 0 C0.33 0 0.66 0 1 0 C0.67 9.24 0.34 18.48 0 28 C-0.33 28 -0.66 28 -1 28 C-1 21.07 -1 14.14 -1 7 C-2.32 6.67 -3.64 6.34 -5 6 C-3.35830472 3.97945196 -1.69088222 1.97956942 0 0 Z " fill="#B98F8B" transform="translate(230,152)"/>
<path d="M0 0 C0.33 0 0.66 0 1 0 C1.05395478 1.62463842 1.09277195 3.24978541 1.125 4.875 C1.14820313 5.77992187 1.17140625 6.68484375 1.1953125 7.6171875 C1 10 1 10 -1 12 C-4.125 12.125 -4.125 12.125 -7 12 C-6.01 11.34 -5.02 10.68 -4 10 C-3.64080332 8.33871537 -3.31088368 6.67099977 -3 5 C-1.5 2.1875 -1.5 2.1875 0 0 Z " fill="#A1ACBF" transform="translate(181,50)"/>
<path d="M0 0 C2.32240046 2.85021875 3.93906527 5.46355091 5 9 C4.625 11.3125 4.625 11.3125 4 13 C3.34 11.68 2.68 10.36 2 9 C0.35 9 -1.3 9 -3 9 C-2.01 6.03 -1.02 3.06 0 0 Z " fill="#C6807B" transform="translate(192,191)"/>
<path d="M0 0 C0.33 0.66 0.66 1.32 1 2 C1.99 2.33 2.98 2.66 4 3 C3.8125 5.375 3.8125 5.375 3 8 C0.4375 9.3125 0.4375 9.3125 -2 10 C-1.979375 9.071875 -1.95875 8.14375 -1.9375 7.1875 C-1.84230396 3.97713989 -1.84230396 3.97713989 -3 1 C-2.01 0.67 -1.02 0.34 0 0 Z " fill="#D2A19E" transform="translate(245,130)"/>
<path d="M0 0 C2.64 0.66 5.28 1.32 8 2 C7.67 3.65 7.34 5.3 7 7 C6.34 7 5.68 7 5 7 C4.67 7.99 4.34 8.98 4 10 C3.32845067 8.71086513 2.66291141 7.41859796 2 6.125 C1.62875 5.40570313 1.2575 4.68640625 0.875 3.9453125 C0 2 0 2 0 0 Z " fill="#E1F1F9" transform="translate(240,102)"/>
<path d="M0 0 C1.67542976 0.28604898 3.34385343 0.61781233 5 1 C4.67 1.99 4.34 2.98 4 4 C-1.68849748 5.49697302 -6.41809068 4.3348044 -12 3 C-9.40921479 2.31369928 -6.98776574 1.8627479 -4.3125 1.5 C-1.16174185 1.35962484 -1.16174185 1.35962484 0 0 Z " fill="#8896A7" transform="translate(154,84)"/>
<path d="M0 0 C2.12038635 2.61514317 4.13091744 5.19637616 6 8 C5.01 8.99 4.02 9.98 3 11 C2.67 10.34 2.34 9.68 2 9 C1.01 8.67 0.02 8.34 -1 8 C-0.67 5.36 -0.34 2.72 0 0 Z " fill="#2B092F" transform="translate(164,152)"/>
<path d="M0 0 C0.33 0.99 0.66 1.98 1 3 C-6.59 3 -14.18 3 -22 3 C-22 2.67 -22 2.34 -22 2 C-19.08362234 1.66395648 -16.16694348 1.33106414 -13.25 1 C-12.0125 0.85691406 -12.0125 0.85691406 -10.75 0.7109375 C-9.55117187 0.57558594 -9.55117187 0.57558594 -8.328125 0.4375 C-7.22839355 0.31181641 -7.22839355 0.31181641 -6.10644531 0.18359375 C-4.07773478 0.00677521 -2.03640154 0 0 0 Z " fill="#051021" transform="translate(205,121)"/>
<path d="M0 0 C0 0.33 0 0.66 0 1 C-3 2 -6 3 -9 4 C-9 4.66 -9 5.32 -9 6 C-9.66 6 -10.32 6 -11 6 C-11 5.01 -11 4.02 -11 3 C-11.66 3 -12.32 3 -13 3 C-13 2.34 -13 1.68 -13 1 C-4.57142857 -1.42857143 -4.57142857 -1.42857143 0 0 Z " fill="#110A1B" transform="translate(199,92)"/>
<path d="M0 0 C0.66 0.33 1.32 0.66 2 1 C1.36266447 4.69654605 1.36266447 4.69654605 -0.53125 6.28125 C-2.62932078 8.73643922 -2.29946852 10.5150586 -2.1875 13.6875 C-2.16042969 14.68136719 -2.13335937 15.67523438 -2.10546875 16.69921875 C-2.07066406 17.45847656 -2.03585938 18.21773437 -2 19 C-2.66 18.67 -3.32 18.34 -4 18 C-4.10864945 15.93867858 -4.18588321 13.87568679 -4.25 11.8125 C-4.29640625 10.66394531 -4.3428125 9.51539063 -4.390625 8.33203125 C-3.92924572 4.39646601 -2.70028512 2.82254213 0 0 Z " fill="#D49588" transform="translate(201,181)"/>
<path d="M0 0 C0.66 0 1.32 0 2 0 C3.7143618 1.95927063 5.38405168 3.95880212 7 6 C5.68 6.33 4.36 6.66 3 7 C3 7.66 3 8.32 3 9 C2.01 9 1.02 9 0 9 C0 6.03 0 3.06 0 0 Z " fill="#322338" transform="translate(256,126)"/>
<path d="M0 0 C0.33 0 0.66 0 1 0 C1.33 4.95 1.66 9.9 2 15 C0.68 14.67 -0.64 14.34 -2 14 C-1.43393721 9.30976546 -0.81462495 4.65499974 0 0 Z " fill="#CBD6DF" transform="translate(149,366)"/>
<path d="M0 0 C1.32 0.66 2.64 1.32 4 2 C3.01 2.495 3.01 2.495 2 3 C1.26928667 4.61841584 0.6122162 6.27064574 0 7.9375 C-1.78587699 12.78587699 -1.78587699 12.78587699 -4 15 C-4.99 15 -5.98 15 -7 15 C-7 14.01 -7 13.02 -7 12 C-5.68 11.67 -4.36 11.34 -3 11 C-2.95101562 10.37351563 -2.90203125 9.74703125 -2.8515625 9.1015625 C-2.77679688 8.28429687 -2.70203125 7.46703125 -2.625 6.625 C-2.55539063 5.81289062 -2.48578125 5.00078125 -2.4140625 4.1640625 C-2 2 -2 2 0 0 Z " fill="#0D0915" transform="translate(200,171)"/>
<path d="M0 0 C2.5 0.3125 2.5 0.3125 5 1 C6.32229189 3.64458379 6.09677194 5.67761301 6.0625 8.625 C6.05347656 9.62789062 6.04445312 10.63078125 6.03515625 11.6640625 C6.02355469 12.43492187 6.01195312 13.20578125 6 14 C5.67 14 5.34 14 5 14 C4.67 10.37 4.34 6.74 4 3 C0.45678112 4.40375831 0.45678112 4.40375831 -3 6 C-1.125 1.125 -1.125 1.125 0 0 Z " fill="#CDC4CD" transform="translate(246,121)"/>
<path d="M0 0 C0.99 0.33 1.98 0.66 3 1 C3.33 1.99 3.66 2.98 4 4 C-1.17578125 7.22265625 -1.17578125 7.22265625 -3 8 C-3.99 7.67 -4.98 7.34 -6 7 C-4.02 4.69 -2.04 2.38 0 0 Z " fill="#D2DDE9" transform="translate(144,99)"/>
<path d="M0 0 C0.33 0 0.66 0 1 0 C1.33 4.29 1.66 8.58 2 13 C0.68 13 -0.64 13 -2 13 C-1.48041715 8.62065881 -0.94324258 4.31196609 0 0 Z " fill="#BCC7D0" transform="translate(201,365)"/>
<path d="M0 0 C0.66 0 1.32 0 2 0 C1.67 4.62 1.34 9.24 1 14 C0.01 14 -0.98 14 -2 14 C-1.03644647 4.58997722 -1.03644647 4.58997722 0 0 Z " fill="#939AA4" transform="translate(312,363)"/>
<path d="M0 0 C1.051875 0.474375 2.10375 0.94875 3.1875 1.4375 C6.10175851 2.69323741 8.84746914 3.52234381 12 4 C9.71365703 5.39894958 8.41968055 6.03151185 5.7109375 5.828125 C4.94007813 5.63734375 4.16921875 5.4465625 3.375 5.25 C2.59898437 5.06953125 1.82296875 4.8890625 1.0234375 4.703125 C-1 4 -1 4 -3 2 C-2.01 2 -1.02 2 0 2 C0 1.34 0 0.68 0 0 Z " fill="#1A171C" transform="translate(185,212)"/>
<path d="M0 0 C0.66 0.99 1.32 1.98 2 3 C3.98 2.34 5.96 1.68 8 1 C7 4 7 4 5.4375 5.125 C1.98342993 6.36492259 -1.34914566 6.63491457 -5 7 C-4.67 6.01 -4.34 5.02 -4 4 C-1.9375 3.3125 -1.9375 3.3125 0 3 C0 2.01 0 1.02 0 0 Z " fill="#573A34" transform="translate(241,136)"/>
<path d="M0 0 C0.33 0 0.66 0 1 0 C0.37679879 6.43974581 -0.64008262 12.67572401 -2 19 C-2.66 18.34 -3.32 17.68 -4 17 C-3.828125 14.86328125 -3.828125 14.86328125 -3.25 12.3125 C-3.05148438 11.42433594 -2.85296875 10.53617188 -2.6484375 9.62109375 C-1.84750705 6.38359779 -0.97105183 3.19059887 0 0 Z " fill="#968468" transform="translate(223,168)"/>
<path d="M0 0 C1.49251706 2.98503412 2.60987721 5.61234773 3.625 8.75 C3.88539063 9.54921875 4.14578125 10.3484375 4.4140625 11.171875 C4.60742188 11.77515625 4.80078125 12.3784375 5 13 C3.02 11.68 1.04 10.36 -1 9 C-0.67 6.03 -0.34 3.06 0 0 Z " fill="#CCCFDE" transform="translate(260,120)"/>
<path d="M0 0 C0.66 0.33 1.32 0.66 2 1 C2.73075648 3.3140622 3.40138258 5.64828869 4 8 C2.824375 7.9690625 2.824375 7.9690625 1.625 7.9375 C-0.98114961 7.81315937 -0.98114961 7.81315937 -3 9 C-2.01 6.03 -1.02 3.06 0 0 Z " fill="#302C3A" transform="translate(87,339)"/>
<path d="M0 0 C10.55808656 -0.3690205 10.55808656 -0.3690205 15 2 C15 2.33 15 2.66 15 3 C11.7 3.66 8.4 4.32 5 5 C5 4.34 5 3.68 5 3 C5.66 3 6.32 3 7 3 C7 2.34 7 1.68 7 1 C4.69 1 2.38 1 0 1 C0 0.67 0 0.34 0 0 Z " fill="#BEC3D2" transform="translate(227,55)"/>
<path d="M0 0 C-5 5 -5 5 -8.625 5.125 C-9.73875 5.08375 -10.8525 5.0425 -12 5 C-9.35009461 -0.29981077 -5.49568929 -0.317059 0 0 Z " fill="#9FACBD" transform="translate(201,52)"/>
<path d="M0 0 C0.99773437 0.02320313 1.99546875 0.04640625 3.0234375 0.0703125 C4.52777344 0.09738281 4.52777344 0.09738281 6.0625 0.125 C6.83335937 0.14820313 7.60421875 0.17140625 8.3984375 0.1953125 C7.22265625 1.71484375 7.22265625 1.71484375 5.3984375 3.1953125 C2.91796875 3.26953125 2.91796875 3.26953125 0.2109375 2.8828125 C-1.14064453 2.70298828 -1.14064453 2.70298828 -2.51953125 2.51953125 C-3.55013672 2.35904297 -3.55013672 2.35904297 -4.6015625 2.1953125 C-2.6015625 0.1953125 -2.6015625 0.1953125 0 0 Z " fill="#F2DAC2" transform="translate(216.6015625,207.8046875)"/>
<path d="M0 0 C7.45937249 0.61142397 7.45937249 0.61142397 10 2.4375 C11 4 11 4 11 6 C10.319375 5.690625 9.63875 5.38125 8.9375 5.0625 C5.63034088 3.86629351 2.48454122 3.40994603 -1 3 C-0.67 2.01 -0.34 1.02 0 0 Z " fill="#C6947E" transform="translate(186,205)"/>
<path d="M0 0 C0.33 0.99 0.66 1.98 1 3 C-0.28716647 4.00578589 -1.57988658 5.00446798 -2.875 6 C-3.95394531 6.8353125 -3.95394531 6.8353125 -5.0546875 7.6875 C-7 9 -7 9 -9 9 C-9.33 8.01 -9.66 7.02 -10 6 C-8.68 6 -7.36 6 -6 6 C-5.67 5.01 -5.34 4.02 -5 3 C-3.35 2.67 -1.7 2.34 0 2 C0 1.34 0 0.68 0 0 Z " fill="#2B0714" transform="translate(190,195)"/>
<path d="M0 0 C3.63 0.66 7.26 1.32 11 2 C9 4 9 4 5.375 4.125 C4.26125 4.08375 3.1475 4.0425 2 4 C1.67 4.66 1.34 5.32 1 6 C0.67 4.02 0.34 2.04 0 0 Z " fill="#9EA7B6" transform="translate(258,101)"/>
<path d="M0 0 C7.38461538 -0.49230769 7.38461538 -0.49230769 10.5 2 C10.995 2.66 11.49 3.32 12 4 C9.5332355 4.88336837 8.36140628 5.1312406 5.859375 4.22265625 C5.16328125 3.83980469 4.4671875 3.45695313 3.75 3.0625 C3.04359375 2.68222656 2.3371875 2.30195313 1.609375 1.91015625 C1.07828125 1.60980469 0.5471875 1.30945313 0 1 C0 0.67 0 0.34 0 0 Z " fill="#F2DDC6" transform="translate(184,208)"/>
<path d="M0 0 C4.95 0.99 4.95 0.99 10 2 C10 3.32 10 4.64 10 6 C9.01 6.33 8.02 6.66 7 7 C6.5875 6.54625 6.175 6.0925 5.75 5.625 C3.93591905 3.94049626 2.24714373 3.00734029 0 2 C0 1.34 0 0.68 0 0 Z " fill="#C19490" transform="translate(231,133)"/>
<path d="M0 0 C0.598125 0.33 1.19625 0.66 1.8125 1 C4.05386471 2.20787988 4.05386471 2.20787988 7 2 C6.34 4.31 5.68 6.62 5 9 C1.96130589 7.48065294 1.35589694 5.01995228 0 2 C0 1.34 0 0.68 0 0 Z " fill="#9AA7C3" transform="translate(146,113)"/>
<path d="M0 0 C0.99 0 1.98 0 3 0 C3 0.66 3 1.32 3 2 C3.99 2.33 4.98 2.66 6 3 C5.34 3 4.68 3 4 3 C4.33 3.99 4.66 4.98 5 6 C1.31245243 5.50168276 -0.60490662 4.89932357 -3 2 C-2.01 2 -1.02 2 0 2 C0 1.34 0 0.68 0 0 Z " fill="#9AABB5" transform="translate(180,63)"/>
<path d="M0 0 C2 2 2 2 2.1953125 3.9453125 C2.13020833 5.96354167 2.06510417 7.98177083 2 10 C1.01 10.33 0.02 10.66 -1 11 C-1.125 3.375 -1.125 3.375 0 0 Z " fill="#B6BDCC" transform="translate(64,362)"/>
<path d="M0 0 C0.33 0 0.66 0 1 0 C1.14285714 7.42857143 1.14285714 7.42857143 0 11 C-0.99 11 -1.98 11 -3 11 C-2.53199289 6.94393835 -2.12046792 3.53411321 0 0 Z " fill="#C1897F" transform="translate(215,193)"/>
<path d="M0 0 C3.28788824 3.11016455 5.83735988 6.01618925 8 10 C6.02 9.34 4.04 8.68 2 8 C2 7.01 2 6.02 2 5 C1.34 5 0.68 5 0 5 C0 3.35 0 1.7 0 0 Z " fill="#301529" transform="translate(170,160)"/>
<path d="M0 0 C0 3 0 3 -2 6 C-2.66 6 -3.32 6 -4 6 C-4 6.66 -4 7.32 -4 8 C-4.99 8.33 -5.98 8.66 -7 9 C-7.33 8.01 -7.66 7.02 -8 6 C-5.36 4.02 -2.72 2.04 0 0 Z " fill="#C87B7B" transform="translate(220,162)"/>
<path d="M0 0 C0 2.64 0 5.28 0 8 C-1.32 8.33 -2.64 8.66 -4 9 C-4 8.01 -4 7.02 -4 6 C-4.66 5.67 -5.32 5.34 -6 5 C-4.68 4.67 -3.36 4.34 -2 4 C-2.33 3.01 -2.66 2.02 -3 1 C-1 0 -1 0 0 0 Z " fill="#291831" transform="translate(275,98)"/>
<path d="M0 0 C-0.99 1.485 -0.99 1.485 -2 3 C-2.66 3 -3.32 3 -4 3 C-4.33 4.65 -4.66 6.3 -5 8 C-5.33 8 -5.66 8 -6 8 C-6.33 5.36 -6.66 2.72 -7 0 C-3.86650268 -1.04449911 -3.01031744 -0.93423645 0 0 Z " fill="#99AAB9" transform="translate(151,104)"/>
<path d="M0 0 C0.33 0 0.66 0 1 0 C1.03738281 0.73605469 1.07476562 1.47210938 1.11328125 2.23046875 C1.48054633 7.68183479 1.841427 11.40571201 5 16 C4.67 16.99 4.34 17.98 4 19 C-0.66928844 13.89296577 -0.35199549 9.38157043 -0.140625 2.6328125 C-0.09421875 1.76398438 -0.0478125 0.89515625 0 0 Z " fill="#ABB6C4" transform="translate(171,74)"/>
<path d="M0 0 C2.28062828 3.42094242 2.21925007 4.68187222 2.125 8.6875 C2.10695312 9.68136719 2.08890625 10.67523438 2.0703125 11.69921875 C2.03550781 12.83810547 2.03550781 12.83810547 2 14 C1.01 14 0.02 14 -1 14 C-0.67 9.38 -0.34 4.76 0 0 Z " fill="#CAD6E2" transform="translate(176,364)"/>
<path d="M0 0 C-4.30769231 4.76923077 -4.30769231 4.76923077 -8 5 C-10.25 4.0625 -10.25 4.0625 -12 3 C-4.71428571 -0.42857143 -4.71428571 -0.42857143 0 0 Z " fill="#D4B5AA" transform="translate(238,204)"/>
<path d="M0 0 C0.66 0.33 1.32 0.66 2 1 C2.4140625 3.06640625 2.4140625 3.06640625 2.625 5.5625 C2.69976562 6.38878906 2.77453125 7.21507812 2.8515625 8.06640625 C2.92503906 9.02353516 2.92503906 9.02353516 3 10 C2.34 10 1.68 10 1 10 C-0.83691257 6.21812119 -1.15837626 4.05431692 0 0 Z " fill="#260624" transform="translate(161,145)"/>
<path d="M0 0 C0.66 0.99 1.32 1.98 2 3 C2.66 2.34 3.32 1.68 4 1 C4 1.66 4 2.32 4 3 C5.32 2.67 6.64 2.34 8 2 C5.22920113 5.80984844 1.37131855 6.06840752 -3 7 C-2.01 4.69 -1.02 2.38 0 0 Z " fill="#311D3A" transform="translate(252,134)"/>
<path d="M0 0 C0.66 0.33 1.32 0.66 2 1 C1.071875 1.763125 0.14375 2.52625 -0.8125 3.3125 C-2.55961642 4.75952348 -4.17206992 6.17821528 -5.75 7.8125 C-7 9 -7 9 -9 9 C-9.33 9.99 -9.66 10.98 -10 12 C-9.68861865 8.7220036 -9.32674163 7.31932973 -6.93359375 4.98046875 C-6.10988281 4.38878906 -5.28617188 3.79710937 -4.4375 3.1875 C-3.61121094 2.58292969 -2.78492188 1.97835937 -1.93359375 1.35546875 C-1.29550781 0.90816406 -0.65742188 0.46085938 0 0 Z " fill="#B1928D" transform="translate(171,130)"/>
<path d="M0 0 C2.6875 0.3125 2.6875 0.3125 5 1 C5 2.65 5 4.3 5 6 C2.36 5.01 -0.28 4.02 -3 3 C-2.01 2.01 -1.02 1.02 0 0 Z " fill="#38393D" transform="translate(233,59)"/>
<path d="M0 0 C0.99 0 1.98 0 3 0 C3.625 3.375 3.625 3.375 4 7 C3.34 7.66 2.68 8.32 2 9 C2 7.68 2 6.36 2 5 C1.01 5 0.02 5 -1 5 C-0.67 3.35 -0.34 1.7 0 0 Z " fill="#91A1BB" transform="translate(234,149)"/>
<path d="M0 0 C0.66 0 1.32 0 2 0 C2 0.99 2 1.98 2 3 C2.66 3 3.32 3 4 3 C4 2.34 4 1.68 4 1 C4.99 1.33 5.98 1.66 7 2 C6.6875 3.9375 6.6875 3.9375 6 6 C5.01 6.33 4.02 6.66 3 7 C0 2.25 0 2.25 0 0 Z " fill="#131826" transform="translate(186,95)"/>
<path d="M0 0 C7.75 -0.125 7.75 -0.125 10 1 C10 1.66 10 2.32 10 3 C6.18510326 4.46726798 3.70988378 3.43336419 0 2 C0 1.34 0 0.68 0 0 Z " fill="#9FA8BB" transform="translate(187,86)"/>
<path d="M0 0 C1.51400391 0.01740234 1.51400391 0.01740234 3.05859375 0.03515625 C4.07050781 0.04417969 5.08242187 0.05320313 6.125 0.0625 C7.29869141 0.07990234 7.29869141 0.07990234 8.49609375 0.09765625 C5.92722465 2.66652535 3.96184544 2.40351881 0.47265625 2.74609375 C-2.10652704 3.20484177 -3.63059736 4.3024019 -5.50390625 6.09765625 C-3.20675713 0.12506853 -3.20675713 0.12506853 0 0 Z " fill="#3C404B" transform="translate(195.50390625,49.90234375)"/>
<path d="M0 0 C-1.65 1.98 -3.3 3.96 -5 6 C-5.12375 5.360625 -5.2475 4.72125 -5.375 4.0625 C-5.684375 3.0415625 -5.684375 3.0415625 -6 2 C-6.66 1.67 -7.32 1.34 -8 1 C-4.93251126 -0.86240388 -3.40254489 -1.2151946 0 0 Z " fill="#2D1816" transform="translate(215,166)"/>
<path d="M0 0 C0.66 0 1.32 0 2 0 C0.4169423 4.2742558 -2.50568404 6.26531794 -6 9 C-6.33 7.35 -6.66 5.7 -7 4 C-5.68 4.33 -4.36 4.66 -3 5 C-3 4.34 -3 3.68 -3 3 C-2.34 3 -1.68 3 -1 3 C-0.67 2.01 -0.34 1.02 0 0 Z " fill="#D28D7E" transform="translate(219,165)"/>
<path d="M0 0 C0.99 0.66 1.98 1.32 3 2 C3 2.66 3 3.32 3 4 C1.03533587 5.06775224 -0.96855359 6.06553465 -3 7 C-3.66 6.67 -4.32 6.34 -5 6 C-3.35 4.02 -1.7 2.04 0 0 Z " fill="#AF7B8A" transform="translate(171,91)"/>
<path d="M0 0 C-1.62366466 3.24732932 -4.75387839 3.70155136 -8 5 C-8 4.34 -8 3.68 -8 3 C-9.32 2.67 -10.64 2.34 -12 2 C-7.8803623 0.70756464 -4.33168317 -0.26252625 0 0 Z " fill="#B2B4C7" transform="translate(205,41)"/>
<path d="M0 0 C0.33 0 0.66 0 1 0 C1.3125 2.1875 1.3125 2.1875 1 5 C-1.5 7.8125 -1.5 7.8125 -4 10 C-3.52371389 5.8086822 -2.89509268 3.13635041 0 0 Z " fill="#A3A7BA" transform="translate(169,86)"/>
<path d="M0 0 C0.66 1.32 1.32 2.64 2 4 C0 6 0 6 -2.625 6.125 C-3.40875 6.08375 -4.1925 6.0425 -5 6 C-3.35 4.02 -1.7 2.04 0 0 Z " fill="#C57B80" transform="translate(211,170)"/>
<path d="M0 0 C0.33 0.99 0.66 1.98 1 3 C-3.95 5.97 -3.95 5.97 -9 9 C-9.66 8.34 -10.32 7.68 -11 7 C-10.37351563 6.66226563 -9.74703125 6.32453125 -9.1015625 5.9765625 C-8.28429687 5.53054687 -7.46703125 5.08453125 -6.625 4.625 C-5.40683594 3.96371094 -5.40683594 3.96371094 -4.1640625 3.2890625 C-1.89185698 2.0556107 -1.89185698 2.0556107 0 0 Z " fill="#713F2A" transform="translate(224,157)"/>
<path d="M0 0 C2.15377564 2.62198774 3.40072174 4.64404172 4 8 C2.68 7.67 1.36 7.34 0 7 C-1.125 2.25 -1.125 2.25 0 0 Z " fill="#824D40" transform="translate(174,128)"/>
<path d="M0 0 C0.66 0 1.32 0 2 0 C2.33 1.98 2.66 3.96 3 6 C2.01 6.495 2.01 6.495 1 7 C1 6.34 1 5.68 1 5 C-0.65 5.66 -2.3 6.32 -4 7 C-2.68 4.69 -1.36 2.38 0 0 Z " fill="#313846" transform="translate(231,103)"/>
<path d="M0 0 C0.99 0 1.98 0 3 0 C4.6875 2.5 4.6875 2.5 6 5 C2 5 2 5 0.25 3.5 C-0.1625 3.005 -0.575 2.51 -1 2 C-0.67 1.34 -0.34 0.68 0 0 Z " fill="#DEEEF5" transform="translate(236,92)"/>
<path d="M0 0 C1.32 0.33 2.64 0.66 4 1 C5.125 4.75 5.125 4.75 4 7 C4.66 7.33 5.32 7.66 6 8 C5.01 8 4.02 8 3 8 C0 2.25 0 2.25 0 0 Z " fill="#D6CAC9" transform="translate(163,148)"/>
<path d="M0 0 C2.0625 0.4375 2.0625 0.4375 4 1 C3.67 2.32 3.34 3.64 3 5 C1.35 5.33 -0.3 5.66 -2 6 C-1.34 5.67 -0.68 5.34 0 5 C-0.2784375 4.0409375 -0.2784375 4.0409375 -0.5625 3.0625 C-0.7790625 2.0415625 -0.7790625 2.0415625 -1 1 C-0.67 0.67 -0.34 0.34 0 0 Z " fill="#DDC8B6" transform="translate(178,131)"/>
<path d="M0 0 C0.66 0 1.32 0 2 0 C3.19287411 3.87684087 4 6.91621923 4 11 C1.73030256 8.73030256 1.00868171 7.02604513 0 4 C0 2.68 0 1.36 0 0 Z " fill="#22142A" transform="translate(261,120)"/>
<path d="M0 0 C2.5 2.3125 2.5 2.3125 5 5 C5 5.99 5 6.98 5 8 C2.5 6.8125 2.5 6.8125 0 5 C-0.3125 2.3125 -0.3125 2.3125 0 0 Z " fill="#96ABB6" transform="translate(200,78)"/>
<path d="M0 0 C2.97 0 5.94 0 9 0 C9 0.99 9 1.98 9 3 C6 4 6 4 2.8125 2.5625 C1.884375 2.046875 0.95625 1.53125 0 1 C0 0.67 0 0.34 0 0 Z " fill="#8F9CAA" transform="translate(159,68)"/>
<path d="M0 0 C1.9375 0.75 1.9375 0.75 4 2 C4.36162029 3.32594105 4.69728039 4.65938457 5 6 C5.99 6.33 6.98 6.66 8 7 C7.34 7.66 6.68 8.32 6 9 C4.99406757 7.8803014 3.9954151 6.7540588 3 5.625 C2.443125 4.99851563 1.88625 4.37203125 1.3125 3.7265625 C0 2 0 2 0 0 Z " fill="#E5DBDA" transform="translate(168,156)"/>
<path d="M0 0 C1.32 0 2.64 0 4 0 C3.34 2.97 2.68 5.94 2 9 C0.05276405 6.07914607 -0.55175352 4.40667322 -1 1 C-0.67 0.67 -0.34 0.34 0 0 Z " fill="#1B0A12" transform="translate(159,135)"/>
<path d="M0 0 C3.87132028 0.57352893 6.08172796 2.48704352 9 5 C7.68 5.33 6.36 5.66 5 6 C4.67 5.01 4.34 4.02 4 3 C3.34 3 2.68 3 2 3 C2 2.34 2 1.68 2 1 C1.34 0.67 0.68 0.34 0 0 Z " fill="#D9E0EA" transform="translate(265,97)"/>
<path d="M0 0 C0.99 0 1.98 0 3 0 C5.1519437 3.22791555 5.20086443 4.28400809 5 8 C2.74754119 5.31158141 1.11786042 3.35358125 0 0 Z " fill="#97A9BB" transform="translate(239,107)"/>
<path d="M0 0 C-1 3 -1 3 -4.0625 4.6875 C-5.031875 5.120625 -6.00125 5.55375 -7 6 C-6.67 4.35 -6.34 2.7 -6 1 C-3.92446352 0.4465236 -2.15634036 0 0 0 Z " fill="#0E081A" transform="translate(176,96)"/>
<path d="M0 0 C0.66 0.33 1.32 0.66 2 1 C2 1.99 2 2.98 2 4 C1.01 4 0.02 4 -1 4 C-1.33 4.66 -1.66 5.32 -2 6 C-3.32 5.67 -4.64 5.34 -6 5 C-5.34 5 -4.68 5 -4 5 C-4 4.34 -4 3.68 -4 3 C-2 1.375 -2 1.375 0 0 Z " fill="#26252C" transform="translate(199,44)"/>
<path d="M0 0 C0.66 1.32 1.32 2.64 2 4 C2.66 4 3.32 4 4 4 C3.34 5.32 2.68 6.64 2 8 C-0.7839183 6.60804085 -0.97898997 4.84424221 -2 2 C-1.34 2 -0.68 2 0 2 C0 1.34 0 0.68 0 0 Z " fill="#E9C4B1" transform="translate(196,204)"/>
<path d="M0 0 C0.33 0 0.66 0 1 0 C1 2.64 1 5.28 1 8 C0.01 8.33 -0.98 8.66 -2 9 C-1.125 2.25 -1.125 2.25 0 0 Z " fill="#A0AFB7" transform="translate(254,107)"/>
<path d="M0 0 C0.66 0.33 1.32 0.66 2 1 C1.67 1.99 1.34 2.98 1 4 C-1.66666667 4 -4.33333333 4 -7 4 C-4.61426621 2.10786631 -2.92824652 0.97608217 0 0 Z " fill="#1F1428" transform="translate(168,97)"/>
<path d="M0 0 C2.25245881 2.68841859 3.88213958 4.64641875 5 8 C4.01 8.33 3.02 8.66 2 9 C0.14223235 5.86501708 -0.20140476 3.62528568 0 0 Z " fill="#DFECF0" transform="translate(232,82)"/>
<path d="M0 0 C2 3 2 3 2 7 C1.01 7 0.02 7 -1 7 C-1.04254356 5.00045254 -1.04080783 2.99958364 -1 1 C-0.67 0.67 -0.34 0.34 0 0 Z " fill="#C1CCD6" transform="translate(165,367)"/>
<path d="M0 0 C0.99 0.33 1.98 0.66 3 1 C2.34 2.98 1.68 4.96 1 7 C-1 4 -1 4 -0.625 1.8125 C-0.41875 1.214375 -0.2125 0.61625 0 0 Z " fill="#151118" transform="translate(232,146)"/>
<path d="M0 0 C1.32 0.66 2.64 1.32 4 2 C3.67 2.99 3.34 3.98 3 5 C1.35 4.67 -0.3 4.34 -2 4 C-1.34 2.68 -0.68 1.36 0 0 Z " fill="#3D2349" transform="translate(135,104)"/>
<path d="M0 0 C1.65 0 3.3 0 5 0 C5.33 0.66 5.66 1.32 6 2 C5.01 3.485 5.01 3.485 4 5 C2 3.625 2 3.625 0 2 C0 1.34 0 0.68 0 0 Z " fill="#1F1E25" transform="translate(253,83)"/>
<path d="M0 0 C1.98 0 3.96 0 6 0 C6 0.66 6 1.32 6 2 C3.69 2.33 1.38 2.66 -1 3 C-0.67 2.01 -0.34 1.02 0 0 Z " fill="#C7CDDC" transform="translate(255,80)"/>
</svg>
